<svg width="23" height="23" viewBox="0 0 23 23" fill="none" xmlns="http://www.w3.org/2000/svg">
<path d="M13.342 9.65817C13.9779 10.2944 14.4499 11.0495 14.6043 11.6783C14.6848 12.0064 14.9785 12.2258 15.3017 12.2258C15.3584 12.2258 15.4161 12.2191 15.4736 12.2051C15.8591 12.1103 16.0947 11.7212 16.0002 11.3359C15.7826 10.4495 15.1841 9.46763 14.3583 8.64194C13.5328 7.81626 12.5511 7.21796 11.6649 7.00005C11.2789 6.90531 10.8901 7.14076 10.7953 7.52641C10.7006 7.91205 10.9364 8.30121 11.3217 8.39595C11.951 8.55071 12.7062 9.02233 13.342 9.65817Z" fill="#220959"/>
<path d="M19.4399 3.56011C17.6869 1.80698 15.5345 0.550382 13.3788 0.0212165C12.9934 -0.0731791 12.6042 0.162282 12.5096 0.547928C12.4151 0.933225 12.6509 1.32238 13.0363 1.41713C14.9404 1.88453 16.8537 3.00638 18.4236 4.57634C19.9934 6.1463 21.1154 8.0598 21.5832 9.96417C21.6637 10.2919 21.9574 10.5112 22.2806 10.5112C22.3373 10.5112 22.395 10.5046 22.4526 10.4905C22.8381 10.3958 23.0737 10.0066 22.9791 9.62098C22.4496 7.46571 21.1927 5.31289 19.4399 3.56011Z" fill="#220959"/>
<path d="M16.8991 6.10105C15.6036 4.8055 14.0489 3.88578 12.5217 3.51066C12.1349 3.41626 11.7469 3.65172 11.6524 4.03737C11.5578 4.42267 11.7936 4.81182 12.1789 4.90657C13.4548 5.21993 14.7703 6.00491 15.8827 7.11728C16.9951 8.23001 17.7803 9.54521 18.0936 10.8215C18.1741 11.1492 18.4679 11.3685 18.791 11.3685C18.8477 11.3685 18.9054 11.3619 18.963 11.3478C19.3485 11.2531 19.5841 10.8639 19.4895 10.4783C19.1144 8.95112 18.1945 7.3966 16.8991 6.10105Z" fill="#220959"/>
<path d="M8.09787 7.42466C8.67248 6.37755 8.48386 5.05603 7.63905 4.2114L5.6438 2.21615C5.13288 1.70522 4.45352 1.4238 3.73118 1.4238C3.00866 1.4238 2.3293 1.70522 1.81891 2.21579L1.44326 2.59126C1.22377 2.81093 1.05042 3.05306 0.927781 3.31168C-1.17924 7.75556 0.390365 13.9006 4.74495 18.2554C7.80503 21.3157 11.7489 23.0004 15.366 23C16.8958 23 18.3677 22.6986 19.6888 22.0722C19.9478 21.9494 20.1905 21.7757 20.4093 21.5564L20.7844 21.1816C21.8387 20.1268 21.8385 18.4108 20.7842 17.3567L18.7888 15.3611C17.9445 14.5165 16.6228 14.328 15.5755 14.9021L12.5765 16.5475C12.1966 16.756 11.7331 16.7591 11.3669 16.5539C10.3546 15.9885 9.41342 15.2741 8.56984 14.4305C7.72661 13.5873 7.01216 12.6462 6.44632 11.6331C6.24174 11.2671 6.2442 10.8039 6.45264 10.4235L8.09787 7.42466ZM5.19148 12.3342C5.82188 13.4627 6.61669 14.5102 7.55361 15.4467C8.49088 16.384 9.53799 17.1788 10.6658 17.8087C11.472 18.2593 12.4446 18.2589 13.2676 17.808L16.2668 16.1626C16.7575 15.8934 17.3769 15.9819 17.7725 16.3773L19.768 18.373C20.2619 18.867 20.2619 19.671 19.768 20.1654L19.3927 20.5405C19.29 20.643 19.1823 20.7216 19.0727 20.7735C15.1679 22.6249 9.69362 21.1718 5.76118 17.2392C1.82856 13.3062 0.375105 7.83241 2.22632 3.92752C2.27843 3.81803 2.35703 3.71031 2.45967 3.60749L2.83514 3.23237C3.07446 2.99305 3.39273 2.86111 3.73118 2.86111C4.06963 2.86111 4.3879 2.99305 4.62739 3.23237L6.62283 5.22763C7.01865 5.62345 7.10708 6.2428 6.83775 6.73337L5.19235 9.73257C5.19235 9.73257 5.19235 9.73257 5.19218 9.73292C4.74126 10.5554 4.74092 11.5278 5.19148 12.3342Z" fill="#220959"/>
</svg>
