<svg width="33" height="31" viewBox="0 0 33 31" fill="none" xmlns="http://www.w3.org/2000/svg">
<path d="M31.3349 15.3175C31.3349 23.1746 24.5957 29.6349 16.1674 29.6349C7.73912 29.6349 1 23.1746 1 15.3175C1 7.46035 7.73912 1 16.1674 1C24.5957 1 31.3349 7.46035 31.3349 15.3175Z" stroke="#220959" stroke-width="2"/>
<g clip-path="url(#clip0)">
<path d="M13.493 17.8556L13.2614 21.1129C13.5927 21.1129 13.7362 20.9706 13.9083 20.7997L15.4617 19.3151L18.6806 21.6723C19.2709 22.0013 19.6868 21.8281 19.8461 21.1293L21.9589 11.2289L21.9595 11.2283C22.1467 10.3557 21.6439 10.0144 21.0687 10.2285L8.64957 14.9833C7.80199 15.3123 7.81482 15.7848 8.50549 15.9988L11.6806 16.9864L19.0557 12.3717C19.4027 12.1418 19.7183 12.269 19.4587 12.4988L13.493 17.8556Z" fill="#220959"/>
</g>
<defs>
<clipPath id="clip0">
<rect width="14" height="14" fill="white" transform="translate(8 9)"/>
</clipPath>
</defs>
</svg>
