<svg width="17" height="23" viewBox="0 0 17 23" fill="none" xmlns="http://www.w3.org/2000/svg">
<path fill-rule="evenodd" clip-rule="evenodd" d="M9.11483 22.769C8.93822 22.9233 8.71911 23 8.5 23C8.28089 23 8.06178 22.9233 7.88517 22.769C7.56311 22.4883 0 15.8173 0 8.66621C0 3.88796 3.81272 0 8.5 0C13.1873 0 17 3.88796 17 8.66621C17 15.8173 9.43689 22.4883 9.11483 22.769ZM8.5 1.91667C4.85539 1.91667 1.88889 4.94404 1.88889 8.66621C1.88889 13.8431 6.75089 19.0382 8.49905 20.7383C10.2472 19.0363 15.1111 13.8335 15.1111 8.66621C15.1111 4.94404 12.1446 1.91667 8.5 1.91667ZM8.5 12.5293C6.41656 12.5293 4.72222 10.81 4.72222 8.69592C4.72222 6.58183 6.41656 4.86258 8.5 4.86258C10.5834 4.86258 12.2778 6.58183 12.2778 8.69592C12.2778 10.81 10.5834 12.5293 8.5 12.5293ZM8.5 6.77925C7.45922 6.77925 6.61111 7.63983 6.61111 8.69592C6.61111 9.75296 7.45922 10.6126 8.5 10.6126C9.54078 10.6126 10.3889 9.75296 10.3889 8.69592C10.3889 7.63983 9.54078 6.77925 8.5 6.77925Z" fill="#220959"/>
</svg>
