<svg width="30" height="30" viewBox="0 0 30 30" fill="none" xmlns="http://www.w3.org/2000/svg">
<path d="M29.4141 8.67188C29.26 8.67188 29.1088 8.73457 28.9998 8.84355C28.8908 8.95254 28.8281 9.10371 28.8281 9.25781C28.8281 9.41191 28.8908 9.56309 28.9998 9.67207C29.1088 9.78106 29.26 9.84375 29.4141 9.84375C29.5682 9.84375 29.7193 9.78106 29.8283 9.67207C29.9373 9.56309 30 9.41191 30 9.25781C30 9.10371 29.9373 8.95254 29.8283 8.84355C29.7193 8.73457 29.5682 8.67188 29.4141 8.67188Z" fill="#220959"/>
<path d="M27.0703 0H6.44531C4.82988 0 3.51562 1.31426 3.51562 2.92969V4.33594H1.75781C0.788555 4.33594 0 5.12449 0 6.09375C0 7.06301 0.788555 7.85156 1.75781 7.85156H3.51562V13.2422H1.75781C0.788555 13.2422 0 14.0307 0 15C0 15.9693 0.788555 16.7578 1.75781 16.7578H3.51562V22.1484H1.75781C0.788555 22.1484 0 22.937 0 23.9062C0 24.8755 0.788555 25.6641 1.75781 25.6641H3.51562V27.0703C3.51562 28.6857 4.82988 30 6.44531 30H27.0703C28.6857 30 30 28.6857 30 27.0703V11.6016C30 11.2779 29.7377 11.0156 29.4141 11.0156C29.0904 11.0156 28.8281 11.2779 28.8281 11.6016V27.0703C28.8281 28.0396 28.0396 28.8281 27.0703 28.8281H6.44531C5.47605 28.8281 4.6875 28.0396 4.6875 27.0703V25.6641H5.50781C6.47707 25.6641 7.26562 24.8755 7.26562 23.9062C7.26562 22.937 6.47707 22.1484 5.50781 22.1484H4.6875V16.7578H5.50781C6.47707 16.7578 7.26562 15.9693 7.26562 15C7.26562 14.0307 6.47707 13.2422 5.50781 13.2422H4.6875V7.85156H5.50781C6.47707 7.85156 7.26562 7.06301 7.26562 6.09375C7.26562 5.12449 6.47707 4.33594 5.50781 4.33594H4.6875V2.92969C4.6875 1.96043 5.47605 1.17188 6.44531 1.17188H27.0703C28.0396 1.17188 28.8281 1.96043 28.8281 2.92969V6.8891C28.8281 7.21271 29.0904 7.47504 29.4141 7.47504C29.7377 7.47504 30 7.21271 30 6.8891V2.92969C30 1.31426 28.6857 0 27.0703 0ZM6.09375 23.9062C6.09375 24.2293 5.8309 24.4922 5.50781 24.4922H1.75781C1.43473 24.4922 1.17188 24.2293 1.17188 23.9062C1.17188 23.5832 1.43473 23.3203 1.75781 23.3203H5.50781C5.8309 23.3203 6.09375 23.5832 6.09375 23.9062ZM6.09375 15C6.09375 15.3231 5.8309 15.5859 5.50781 15.5859H1.75781C1.43473 15.5859 1.17188 15.3231 1.17188 15C1.17188 14.6769 1.43473 14.4141 1.75781 14.4141H5.50781C5.8309 14.4141 6.09375 14.6769 6.09375 15ZM6.09375 6.09375C6.09375 6.41684 5.8309 6.67969 5.50781 6.67969H1.75781C1.43473 6.67969 1.17188 6.41684 1.17188 6.09375C1.17188 5.77066 1.43473 5.50781 1.75781 5.50781H5.50781C5.8309 5.50781 6.09375 5.77066 6.09375 6.09375Z" fill="#220959"/>
<path d="M10.5762 23.492C10.4672 23.601 10.4045 23.7521 10.4045 23.9062C10.4045 24.0604 10.4672 24.2115 10.5762 24.3205C10.6851 24.4295 10.8363 24.4922 10.9904 24.4922C11.1445 24.4922 11.2957 24.4295 11.4047 24.3205C11.5137 24.2115 11.5764 24.0604 11.5764 23.9062C11.5764 23.7521 11.5137 23.601 11.4047 23.492C11.2957 23.383 11.1445 23.3203 10.9904 23.3203C10.8363 23.3203 10.6851 23.383 10.5762 23.492Z" fill="#220959"/>
<path d="M24.5508 20.6705V15.9356C24.5508 14.2002 23.1389 12.7883 21.4035 12.7883H19.4801C20.1206 12.1143 20.5148 11.2042 20.5148 10.2032V8.23312V8.09291C20.5148 6.02133 18.8295 4.33594 16.7578 4.33594C14.6862 4.33594 13.0008 6.02133 13.0008 8.09297V8.23318V10.2032C13.0008 11.2042 13.3951 12.1143 14.0355 12.7884H12.1121C10.3767 12.7884 8.96484 14.2003 8.96484 15.9356V20.6706C8.96484 20.9942 9.22717 21.2565 9.55078 21.2565H23.9648C24.2885 21.2565 24.5508 20.9941 24.5508 20.6705ZM14.2529 13.9603H15.6721L14.2529 15.3238V13.9603ZM19.2628 13.9603V15.3238L17.8436 13.9603H19.2628ZM14.1727 8.09297C14.1727 6.6675 15.3323 5.50781 16.7578 5.50781C18.0926 5.50781 19.1944 6.52465 19.3291 7.82437L18.1044 7.10484C17.8576 6.95982 17.5423 7.01438 17.3585 7.23369C16.8064 7.89252 15.9967 8.27039 15.1372 8.27039H14.1727V8.23318V8.09297ZM14.1727 10.2032V9.44227H15.1372C16.1757 9.44227 17.1623 9.04945 17.9114 8.35061L19.343 9.19166V10.2032C19.343 11.6287 18.1833 12.7884 16.7578 12.7884C15.3323 12.7884 14.1727 11.6287 14.1727 10.2032ZM23.3789 20.0846H10.1367V15.9356C10.1367 14.8464 11.0229 13.9602 12.1121 13.9602H13.081V16.6994C13.081 16.9342 13.2213 17.1464 13.4373 17.2385C13.6533 17.3305 13.9035 17.2846 14.0729 17.1219L16.1719 15.1052V16.8691C16.1719 17.1928 16.4342 17.4551 16.7578 17.4551C17.0814 17.4551 17.3438 17.1928 17.3438 16.8691V15.1051L19.4428 17.1219C19.5541 17.2289 19.7003 17.2854 19.8488 17.2854C19.9262 17.2854 20.0043 17.27 20.0783 17.2385C20.2944 17.1465 20.4346 16.9343 20.4346 16.6995V13.9603H21.4035C22.4927 13.9603 23.3789 14.8464 23.3789 15.9356V20.0846Z" fill="#220959"/>
<path d="M13.3341 23.3203C13.0105 23.3203 12.7482 23.5826 12.7482 23.9062C12.7482 24.2299 13.0105 24.4922 13.3341 24.4922H22.5C22.8236 24.4922 23.0859 24.2299 23.0859 23.9062C23.0859 23.5826 22.8236 23.3203 22.5 23.3203H13.3341Z" fill="#220959"/>
</svg>
