<svg width="29" height="29" viewBox="0 0 29 29" fill="none" xmlns="http://www.w3.org/2000/svg">
<path d="M24.6524 5.75123C24.9469 5.32807 25.1202 4.81451 25.1202 4.26096V3.74859C25.1202 2.30624 23.9468 1.13276 22.5043 1.13276C21.0619 1.13276 19.8885 2.30624 19.8885 3.74859V4.26096C19.8885 4.81428 20.0617 5.32762 20.356 5.75072C19.9557 5.77434 19.5686 5.86304 19.1998 6.01455C18.5423 5.42629 17.6852 5.05744 16.7439 5.02289C17.0913 4.55685 17.2972 3.97946 17.2972 3.35482V2.79714C17.2972 1.25482 16.0424 0 14.5 0C12.9576 0 11.7028 1.25482 11.7028 2.7972V3.35488C11.7028 3.97951 11.9087 4.55685 12.2561 5.02295C11.3148 5.05755 10.4577 5.42634 9.80025 6.01461C9.4314 5.8631 9.04427 5.77434 8.64404 5.75078C8.93835 5.32767 9.1115 4.81434 9.1115 4.26102V3.74865C9.1115 2.30629 7.93807 1.13281 6.49566 1.13281C5.05325 1.13281 3.87983 2.30629 3.87983 3.74865V4.26102C3.87983 4.81451 4.05315 5.32807 4.34763 5.75129C2.44609 5.86531 0.933838 7.44785 0.933838 9.37753V15.3432C0.933838 16.325 1.73264 17.1238 2.71451 17.1238H2.72368C2.95223 17.1238 3.17063 17.0801 3.37154 17.0012V26.0196C3.37154 27.0383 4.20036 27.8671 5.2191 27.8671C5.71623 27.8671 6.16777 27.6694 6.50025 27.3489C6.83268 27.6694 7.28427 27.8671 7.78141 27.8671C8.80009 27.8672 9.62891 27.0384 9.62891 26.0196V17.1477C9.8604 17.2492 10.1157 17.3059 10.3842 17.3059H10.3942C10.6627 17.3059 10.9181 17.2492 11.1495 17.1477V27.0391C11.1495 28.1204 12.0292 29 13.1104 29C13.6555 29 14.1492 28.7763 14.5049 28.416C14.8607 28.7763 15.3544 29 15.8994 29C16.9806 29 17.8603 28.1204 17.8603 27.0391V17.1477C18.0918 17.2492 18.3472 17.3059 18.6157 17.3059C18.8842 17.3059 19.1395 17.2492 19.371 17.1477V26.0196C19.3711 27.0384 20.1999 27.8672 21.2186 27.8672C21.7157 27.8672 22.1673 27.6695 22.4998 27.3489C22.8322 27.6695 23.2838 27.8672 23.7809 27.8672C24.7996 27.8672 25.6285 27.0384 25.6285 26.0196V23.1963C25.6285 22.8835 25.3749 22.6299 25.0621 22.6299C24.7492 22.6299 24.4957 22.8835 24.4957 23.1963V26.0196C24.4957 26.4137 24.175 26.7344 23.7809 26.7344C23.3868 26.7344 23.0662 26.4137 23.0662 26.0196V18.983V17.9023C23.0662 17.5895 22.8126 17.3359 22.4998 17.3359C22.1869 17.3359 21.9333 17.5895 21.9333 17.9023V18.983V26.0196C21.9333 26.4137 21.6127 26.7343 21.2186 26.7343C20.8245 26.7343 20.5039 26.4137 20.5039 26.0196V15.4177V15.0664H24.4957V15.3432V18.6651C24.4957 18.9778 24.7492 19.2315 25.0621 19.2315C25.3749 19.2315 25.6285 18.9778 25.6285 18.6651V17.0012C25.8294 17.08 26.0478 17.1238 26.2763 17.1238H26.2855C27.2674 17.1238 28.0662 16.325 28.0662 15.3432V9.37753C28.0662 7.44779 26.5539 5.86525 24.6524 5.75123ZM21.0213 3.74865C21.0213 2.93087 21.6866 2.26562 22.5043 2.26562C23.3221 2.26562 23.9874 2.93087 23.9874 3.74865V4.26102C23.9874 5.07879 23.3221 5.74404 22.5043 5.74404C21.6866 5.74404 21.0213 5.07879 21.0213 4.26102V3.74865ZM12.8356 2.7972C12.8356 1.87945 13.5823 1.13281 14.5 1.13281C15.4178 1.13281 16.1644 1.87945 16.1644 2.7972V3.35488C16.1644 4.27263 15.4178 5.01927 14.5 5.01927C13.5823 5.01927 12.8356 4.27263 12.8356 3.35488V2.7972ZM5.01264 3.74865C5.01264 2.93087 5.67789 2.26562 6.49561 2.26562C7.31333 2.26562 7.97863 2.93087 7.97863 3.74865V4.26102C7.97863 5.07879 7.31333 5.74404 6.49561 5.74404C5.67789 5.74404 5.01264 5.07874 5.01264 4.26102V3.74865ZM2.72368 15.991H2.71451C2.35727 15.991 2.06665 15.7004 2.06665 15.3432V9.37753C2.06665 7.99862 3.18847 6.87685 4.56733 6.87685H8.42399C8.63226 6.87685 8.83566 6.90257 9.03288 6.9519C8.69236 7.53122 8.4961 8.20507 8.4961 8.92418V10.6654V13.9336H4.50435V10.6654C4.50435 10.3526 4.25077 10.099 3.93794 10.099C3.62512 10.099 3.37154 10.3526 3.37154 10.6654V15.3432C3.37154 15.7004 3.08091 15.991 2.72368 15.991ZM8.4961 26.0196C8.4961 26.4137 8.17546 26.7344 7.78135 26.7344C7.38724 26.7344 7.0666 26.4137 7.0666 26.0196V18.983V17.9023C7.0666 17.5895 6.81302 17.3359 6.5002 17.3359C6.18737 17.3359 5.93379 17.5895 5.93379 17.9023V18.983V26.0196C5.93379 26.4137 5.61315 26.7343 5.21904 26.7343C4.82494 26.7343 4.50429 26.4137 4.50429 26.0196V15.3432V15.0664H8.4961V15.4177V26.0196ZM16.7276 27.0391C16.7276 27.4957 16.3561 27.8672 15.8995 27.8672C15.4428 27.8672 15.0713 27.4957 15.0713 27.0391V19.3798V18.2034C15.0713 17.8906 14.8178 17.637 14.5049 17.637C14.1921 17.637 13.9385 17.8906 13.9385 18.2034V19.3798V27.0391C13.9385 27.4957 13.567 27.8672 13.1104 27.8672C12.6538 27.8672 12.2823 27.4957 12.2823 27.0391V15.4177V15.0664H16.7275V15.4177V27.0391H16.7276ZM18.6157 16.173C18.1992 16.173 17.8604 15.8342 17.8604 15.4177V10.326C17.8604 10.0132 17.6068 9.75958 17.294 9.75958C16.9811 9.75958 16.7276 10.0132 16.7276 10.326V13.9336H12.2824V10.326C12.2824 10.0133 12.0288 9.75963 11.7159 9.75963C11.4031 9.75963 11.1495 10.0133 11.1495 10.326V15.4178C11.1495 15.8343 10.8107 16.1731 10.3942 16.1731H10.3843C9.96779 16.1731 9.62897 15.8343 9.62897 15.4178V10.6654V8.92424C9.62897 7.39568 10.8726 6.15213 12.4011 6.15213H13.9343C13.9342 6.15644 13.9337 6.16063 13.9337 6.16499V8.51507C13.9337 8.82784 14.1872 9.08148 14.5001 9.08148C14.8129 9.08148 15.0665 8.82784 15.0665 8.51507V6.16499C15.0665 6.16069 15.0659 6.1565 15.0658 6.15213H16.599C18.1276 6.15213 19.3712 7.39568 19.3712 8.92424V10.6654V15.4178C19.3711 15.8342 19.0322 16.173 18.6157 16.173ZM26.9334 15.3432C26.9334 15.7004 26.6427 15.991 26.2855 15.991H26.2763C25.9191 15.991 25.6285 15.7004 25.6285 15.3432V10.6654C25.6285 10.3526 25.3749 10.099 25.0621 10.099C24.7492 10.099 24.4957 10.3526 24.4957 10.6654V13.9336H20.5039V10.6654V8.92418C20.5039 8.20502 20.3077 7.53116 19.9671 6.9519C20.1644 6.90257 20.3677 6.87685 20.576 6.87685H24.4327C25.8116 6.87685 26.9334 7.99868 26.9334 9.37753V15.3432Z" fill="#220959"/>
<path d="M24.6613 20.5068C24.556 20.6127 24.4959 20.7583 24.4959 20.9072C24.4959 21.0568 24.556 21.2023 24.6613 21.3076C24.7672 21.4135 24.9134 21.4741 25.0623 21.4741C25.2107 21.4741 25.3569 21.4135 25.4628 21.3076C25.5681 21.2023 25.6282 21.0567 25.6282 20.9072C25.6282 20.7583 25.5681 20.6127 25.4628 20.5068C25.3569 20.4014 25.2113 20.3408 25.0623 20.3408C24.9128 20.3408 24.7672 20.4014 24.6613 20.5068Z" fill="#220959"/>
</svg>
