<svg width="74" height="68" viewBox="0 0 74 68" fill="none" xmlns="http://www.w3.org/2000/svg">
<path d="M35.1403 16.7036H35.1211C34.323 16.7036 33.6758 17.3507 33.6758 18.1489C33.6758 18.9472 34.323 19.5942 35.1211 19.5942H35.1403C35.9384 19.5942 36.5856 18.9472 36.5856 18.1489C36.5856 17.3507 35.9384 16.7036 35.1403 16.7036Z" fill="#220959"/>
<path d="M29.3398 16.7034H17.9035C17.1054 16.7034 16.4582 17.3504 16.4582 18.1487C16.4582 18.9469 17.1054 19.594 17.9035 19.594H29.3398C30.1379 19.594 30.7852 18.9469 30.7852 18.1487C30.7852 17.3504 30.1379 16.7034 29.3398 16.7034Z" fill="#220959"/>
<path d="M68.3633 10.9V9.99895C68.3633 7.60812 66.4182 5.66301 64.0273 5.66301C61.6365 5.66301 59.6914 7.60812 59.6914 9.99895V10.7216H55.0723V4.25383C55.0723 2.406 53.5689 0.902588 51.7209 0.902588H31.2399C29.392 0.902588 27.8885 2.406 27.8885 4.25383V10.7216H23.2695V9.99895C23.2695 7.60812 21.3244 5.66301 18.9336 5.66301C16.5428 5.66301 14.5977 7.60812 14.5977 9.99895V10.9C11.3755 11.6265 8.96094 14.5098 8.96094 17.9482V18.1489V30.9934V38.7951C3.6974 41.0474 0 46.2776 0 52.3556C0 60.4844 6.61332 67.0978 14.7422 67.0978C22.8711 67.0978 29.4844 60.4844 29.4844 52.3556C29.4844 44.2267 22.8711 37.6134 14.7422 37.6134C13.753 37.6134 12.7867 37.7121 11.8516 37.8987V32.4376L35.2701 32.4224C35.3642 35.7168 38.0714 38.3683 41.3881 38.3683H41.5725C44.8839 38.3683 47.5879 35.7254 47.6903 32.4384H71.1094V52.0665C71.1094 54.4573 69.1643 56.4024 66.7734 56.4024H39.6016C38.8035 56.4024 38.1562 57.0495 38.1562 57.8478C38.1562 58.646 38.8035 59.2931 39.6016 59.2931H66.7734C70.7582 59.2931 74 56.0512 74 52.0665V30.9933V18.1488V17.948C74 14.5098 71.5855 11.6264 68.3633 10.9ZM26.5938 52.3556C26.5938 58.8905 21.2772 64.2071 14.7422 64.2071C8.20721 64.2071 2.89062 58.8905 2.89062 52.3556C2.89062 45.8206 8.20721 40.504 14.7422 40.504C21.2772 40.504 26.5938 45.8206 26.5938 52.3556ZM62.582 9.99895C62.582 9.20201 63.2304 8.55364 64.0273 8.55364C64.8243 8.55364 65.4727 9.20201 65.4727 9.99895V10.7216H62.582V9.99895ZM30.7792 4.25369C30.7792 3.99975 30.9859 3.79307 31.24 3.79307H51.7211C51.9752 3.79307 52.1819 3.99975 52.1819 4.25369V10.7215H30.7792V4.25369ZM17.4883 9.99895C17.4883 9.20201 18.1366 8.55364 18.9336 8.55364C19.7305 8.55364 20.3789 9.20201 20.3789 9.99895V10.7216H17.4883V9.99895ZM44.8047 32.2458C44.8047 34.028 43.3549 35.4778 41.5727 35.4778H41.3883C39.6062 35.4778 38.1564 34.028 38.1564 32.2458V27.6659H44.8048V32.2458H44.8047ZM47.6953 29.548V26.2206C47.6953 25.4223 47.0481 24.7752 46.25 24.7752H36.7109C35.9128 24.7752 35.2656 25.4223 35.2656 26.2206V29.5318L11.8516 29.5469V18.1488V17.948C11.8516 15.5572 13.7967 13.6121 16.1875 13.6121H66.7734C69.1643 13.6121 71.1094 15.5572 71.1094 17.948V18.1488V29.548H47.6953Z" fill="#220959"/>
<path d="M33.8203 56.4023C33.4402 56.4023 33.0673 56.557 32.7985 56.8258C32.5296 57.0946 32.375 57.4675 32.375 57.8477C32.375 58.2278 32.5295 58.6007 32.7985 58.8695C33.0674 59.1383 33.4402 59.293 33.8203 59.293C34.2004 59.293 34.5733 59.1383 34.842 58.8695C35.1108 58.6007 35.2656 58.2278 35.2656 57.8477C35.2656 57.4675 35.111 57.0946 34.842 56.8258C34.5733 56.557 34.2004 56.4023 33.8203 56.4023Z" fill="#220959"/>
<path d="M14.7422 56.6967C13.798 56.6967 13.0298 56.0595 13.0298 55.2763C13.0298 54.478 12.3826 53.831 11.5845 53.831C10.7864 53.831 10.1392 54.478 10.1392 55.2763C10.1392 57.1812 11.4657 58.8004 13.2986 59.369C13.3172 60.1509 13.9558 60.7795 14.7422 60.7795C15.5286 60.7795 16.1671 60.1509 16.1858 59.369C18.0187 58.8004 19.3452 57.1812 19.3452 55.2763C19.3452 52.8992 17.2803 50.9652 14.7422 50.9652C13.798 50.9652 13.0298 50.328 13.0298 49.5448C13.0298 48.7615 13.7978 48.1243 14.7422 48.1243C15.6865 48.1243 16.4546 48.7615 16.4546 49.5448C16.4546 50.343 17.1018 50.9901 17.8999 50.9901C18.698 50.9901 19.3452 50.343 19.3452 49.5448C19.3452 47.6404 18.0196 46.0217 16.1875 45.4526V45.3772C16.1875 44.579 15.5403 43.9319 14.7422 43.9319C13.9441 43.9319 13.2969 44.579 13.2969 45.3772V45.4526C11.4649 46.0217 10.1392 47.6406 10.1392 49.5448C10.1392 51.9219 12.2041 53.8558 14.7422 53.8558C15.6864 53.8558 16.4546 54.4931 16.4546 55.2763C16.4546 56.0595 15.6864 56.6967 14.7422 56.6967Z" fill="#220959"/>
</svg>
