<svg width="63" height="63" viewBox="0 0 63 63" fill="none" xmlns="http://www.w3.org/2000/svg">
<path d="M6.99521 48.6931C7.31882 48.6931 7.63628 48.5616 7.86515 48.3326C8.0939 48.1037 8.22568 47.7863 8.22568 47.4626C8.22568 47.139 8.09402 46.8216 7.86515 46.5928C7.63628 46.364 7.31882 46.2322 6.99521 46.2322C6.6716 46.2322 6.35413 46.3638 6.12527 46.5928C5.89529 46.8216 5.76474 47.139 5.76474 47.4626C5.76474 47.7863 5.89529 48.1037 6.12527 48.3326C6.35413 48.5616 6.6716 48.6931 6.99521 48.6931Z" fill="#220959"/>
<path d="M55.6996 25.3477C55.376 25.3477 55.0586 25.4792 54.8297 25.7082C54.601 25.937 54.4692 26.2545 54.4692 26.5781C54.4692 26.9017 54.6008 27.2192 54.8297 27.4479C55.0586 27.6768 55.376 27.8086 55.6996 27.8086C56.0233 27.8086 56.3407 27.6769 56.5696 27.4479C56.7983 27.2192 56.9301 26.9017 56.9301 26.5781C56.9301 26.2545 56.7985 25.937 56.5696 25.7082C56.3407 25.4792 56.0233 25.3477 55.6996 25.3477Z" fill="#220959"/>
<path d="M61.7695 35.1346H56.5867C56.807 34.6318 56.9302 34.077 56.9302 33.4937V31.5156C56.9302 30.8362 56.3792 30.2852 55.6997 30.2852C55.0203 30.2852 54.4693 30.8362 54.4693 31.5156V33.4937C54.4693 34.3985 53.7332 35.1346 52.8285 35.1346C51.9236 35.1346 51.1875 34.3985 51.1875 33.4937V31.8716V22.4324C51.1875 21.753 50.6365 21.202 49.957 21.202C49.2776 21.202 48.7266 21.753 48.7266 22.4324V30.2695H39.0697V22.4324C39.0697 21.753 38.5187 21.202 37.8393 21.202C37.1598 21.202 36.6088 21.753 36.6088 22.4324V33.4939C36.6088 34.3986 35.8727 35.1347 34.9678 35.1347H34.9462C34.0413 35.1347 33.3052 34.3986 33.3052 33.4939V19.387C33.3052 16.0664 36.0067 13.3649 39.3274 13.3649H48.4471C51.7677 13.3649 54.4692 16.0664 54.4692 19.387V21.6562C54.4692 22.3357 55.0202 22.8867 55.6996 22.8867C56.3791 22.8867 56.9301 22.3357 56.9301 21.6562V19.387C56.9301 14.815 53.2939 11.0783 48.7619 10.9119C49.5164 9.89949 49.9638 8.64515 49.9638 7.28819V6.07667C49.9639 2.72598 47.2378 0 43.8872 0C40.5367 0 37.8107 2.72598 37.8107 6.07667V7.28819C37.8107 8.64515 38.258 9.89937 39.0126 10.9119C34.4806 11.0784 30.8443 14.8151 30.8443 19.387V33.4939C30.8443 34.0898 30.9731 34.6558 31.2026 35.1672C31.1133 35.1466 31.0207 35.1346 30.9252 35.1346H25.7424C25.9628 34.6318 26.0859 34.077 26.0859 33.4937V19.387C26.0859 14.8151 22.4498 11.0784 17.9177 10.9119C18.6722 9.89949 19.1196 8.64515 19.1196 7.28819V6.07667C19.1196 2.72598 16.3935 0 13.043 0C9.6924 0 6.9663 2.72598 6.9663 6.07667V7.28819C6.9663 8.64515 7.41357 9.89937 8.16822 10.9119C3.63616 11.0783 0 14.815 0 19.387V33.4939C0 35.7556 1.84004 37.5956 4.10189 37.5956H4.12355C4.70679 37.5956 5.26161 37.4725 5.7645 37.2521V42.5414C5.7645 43.2208 6.3155 43.7718 6.99497 43.7718C7.67443 43.7718 8.22544 43.2208 8.22544 42.5414V33.494V32.7305H17.8823V33.4937C17.8823 34.077 18.0054 34.6318 18.2258 35.1346H13.043C12.3635 35.1346 11.8125 35.6856 11.8125 36.365L11.8233 58.7401C11.8233 59.7321 11.0163 60.5391 10.0244 60.5391C9.0325 60.5391 8.22544 59.732 8.22544 58.7401V52.385C8.22544 51.7055 7.67443 51.1545 6.99497 51.1545C6.3155 51.1545 5.7645 51.7055 5.7645 52.385V58.7401C5.7645 61.0891 7.67542 63 10.0244 63C11.2086 63 12.2809 62.514 13.0538 61.7314C13.8267 62.514 14.8991 63 16.0832 63C18.4322 63 20.3432 61.0891 20.3432 58.7401V50.3924H30.9252C31.6047 50.3924 32.1557 49.8414 32.1557 49.1619V36.4964C32.8883 37.1777 33.8691 37.5955 34.9462 37.5955H34.9678C35.5511 37.5955 36.1059 37.4723 36.6088 37.2519V58.7401C36.6088 61.0891 38.5197 63 40.8687 63C42.0529 63 43.1253 62.514 43.8982 61.7314C44.6709 62.514 45.7434 63 46.9276 63C49.2766 63 51.1875 61.0891 51.1875 58.7401V50.3924H61.7695C62.449 50.3924 63 49.8414 63 49.1619V36.365C63 35.6856 62.449 35.1346 61.7695 35.1346ZM40.2716 6.07667C40.2716 4.08294 41.8936 2.46094 43.8872 2.46094C45.881 2.46094 47.503 4.08294 47.503 6.07667V7.28819C47.503 9.28192 45.881 10.9039 43.8872 10.9039C41.8936 10.9039 40.2716 9.28192 40.2716 7.28819V6.07667ZM9.42724 6.07667C9.42724 4.08294 11.0492 2.46094 13.043 2.46094C15.0367 2.46094 16.6587 4.08294 16.6587 6.07667V7.28819C16.6587 9.28192 15.0367 10.9039 13.043 10.9039C11.0492 10.9039 9.42724 9.28192 9.42724 7.28807V6.07667ZM20.3432 33.4937V32.1152V22.4324C20.3432 21.753 19.7922 21.202 19.1127 21.202C18.4333 21.202 17.8823 21.753 17.8823 22.4324V30.2695H8.22544V22.4324C8.22544 21.753 7.67443 21.202 6.99497 21.202C6.3155 21.202 5.7645 21.753 5.7645 22.4324V33.4939C5.7645 34.3986 5.02843 35.1347 4.12355 35.1347H4.10189C3.197 35.1347 2.46094 34.3986 2.46094 33.4939V19.387C2.46094 16.0664 5.16243 13.3649 8.4831 13.3649H17.6027C20.9234 13.3649 23.6249 16.0664 23.6249 19.387V33.4939C23.6249 34.3986 22.8888 35.1347 21.9839 35.1347C21.0794 35.1346 20.3432 34.3985 20.3432 33.4937ZM29.6948 37.5955V40.3594H23.1814C23.0548 39.8146 22.5673 39.4082 21.984 39.4082C21.4008 39.4082 20.9133 39.8146 20.7867 40.3594H14.2843V39.5454C14.2843 39.4928 14.2798 39.4413 14.2734 39.3904V37.5955H29.6948ZM17.8823 58.7401C17.8823 59.7321 17.0752 60.5391 16.0832 60.5391C15.0912 60.5391 14.2843 59.732 14.2843 58.7401V50.3924H17.8823V58.7401ZM14.2843 47.9314V42.8203H20.7867C20.9133 43.365 21.4008 43.7715 21.984 43.7715C22.5673 43.7715 23.0548 43.365 23.1814 42.8203H29.6948V47.9314H14.2843ZM60.5391 40.3594H54.0258C53.8992 39.8146 53.4117 39.4082 52.8285 39.4082C52.2452 39.4082 51.7577 39.8146 51.6311 40.3594H45.1287V39.5454C45.1287 39.4925 45.1242 39.4407 45.1177 39.3896V37.5956H60.5391V40.3594ZM40.8687 60.5391C39.8767 60.5391 39.0697 59.732 39.0697 58.7401V33.4937V32.7305H48.7266V33.4937C48.7266 34.077 48.8497 34.6318 49.0701 35.1346H43.8872C43.2078 35.1346 42.6568 35.6856 42.6568 36.365L42.6677 58.7401C42.6677 59.732 41.8607 60.5391 40.8687 60.5391ZM48.7266 58.7401C48.7266 59.7321 47.9195 60.5391 46.9276 60.5391C45.9357 60.5391 45.1287 59.732 45.1287 58.7401V50.3924H48.7266V58.7401ZM45.1287 47.9314V42.8203H51.6311C51.7577 43.365 52.2452 43.7715 52.8285 43.7715C53.4117 43.7715 53.8992 43.365 54.0258 42.8203H60.5391V47.9314H45.1287Z" fill="#220959"/>
</svg>
