<svg width="60" height="64" viewBox="0 0 60 64" fill="none" xmlns="http://www.w3.org/2000/svg">
<path d="M59.7812 33.5416C59.7812 32.8514 59.2216 32.2916 58.5312 32.2916H54.7812V1.25C54.7812 0.55975 54.2216 0 53.5312 0H15.5443C14.8539 0 14.2943 0.55975 14.2943 1.25V24.1343L9.27738 19.1369C9.04313 18.9035 8.72587 18.7725 8.39525 18.7725H1.46875C0.778375 18.7725 0.21875 19.3322 0.21875 20.0225V58.7443C0.21875 61.6424 2.5765 64 5.4745 64H51.8739C52.034 64 52.1866 63.9688 52.3273 63.9139C52.6666 63.9696 53.0144 63.9999 53.3693 63.9999C56.9048 63.9999 59.7811 61.1234 59.7811 57.5879V56.375C59.7811 56.3003 59.7734 56.2274 59.7607 56.1562C59.7734 56.0851 59.7811 56.0122 59.7811 55.9375V33.5416H59.7812ZM52.2812 2.5V48.3125H49.4574V27.1436C49.4574 26.4534 48.8978 25.8936 48.2074 25.8936H16.7943V2.5H52.2812ZM2.71875 58.7443V21.2725H7.87887L14.6621 28.0294C14.8964 28.2628 15.2136 28.3937 15.5443 28.3937H46.9572V49.5625V57.5879C46.9572 59.0599 47.4571 60.4165 48.2943 61.5H44.4572V50.25C44.4572 49.5597 43.8976 49 43.2072 49C42.5169 49 41.9572 49.5597 41.9572 50.25V61.5H5.4745C3.955 61.5 2.71875 60.2638 2.71875 58.7443ZM57.2812 57.5879C57.2812 59.745 55.5264 61.4999 53.3693 61.4999C51.2122 61.4999 49.4574 59.745 49.4574 57.5879V50.8125H53.5312C54.2216 50.8125 54.7812 50.2528 54.7812 49.5625V34.7916H57.2812V55.9375C57.2812 56.0122 57.289 56.0851 57.3016 56.1562C57.289 56.2274 57.2812 56.3003 57.2812 56.375V57.5879Z" fill="#220959"/>
<path d="M27.8228 9.25H46.8438C47.5341 9.25 48.0938 8.69025 48.0938 8C48.0938 7.30975 47.5341 6.75 46.8438 6.75H27.8228C27.1324 6.75 26.5728 7.30975 26.5728 8C26.5728 8.69025 27.1324 9.25 27.8228 9.25Z" fill="#220959"/>
<path d="M22.8225 9.25C23.1513 9.25 23.4738 9.11625 23.7063 8.88363C23.9388 8.65125 24.0725 8.32875 24.0725 8C24.0725 7.67125 23.9388 7.34875 23.7063 7.11625C23.4738 6.88375 23.1513 6.75 22.8225 6.75C22.4938 6.75 22.1713 6.88363 21.9388 7.11625C21.7063 7.34888 21.5725 7.67125 21.5725 8C21.5725 8.32875 21.7063 8.65125 21.9388 8.88363C22.1713 9.11625 22.4938 9.25 22.8225 9.25Z" fill="#220959"/>
<path d="M46.8438 13.0833H22.8228C22.1324 13.0833 21.5728 13.643 21.5728 14.3333C21.5728 15.0235 22.1324 15.5833 22.8228 15.5833H46.8438C47.5341 15.5833 48.0938 15.0235 48.0938 14.3333C48.0938 13.643 47.5341 13.0833 46.8438 13.0833Z" fill="#220959"/>
<path d="M46.8438 19.4167H22.8228C22.1324 19.4167 21.5728 19.9765 21.5728 20.6667C21.5728 21.357 22.1324 21.9167 22.8228 21.9167H46.8438C47.5341 21.9167 48.0938 21.357 48.0938 20.6667C48.0938 19.9765 47.5341 19.4167 46.8438 19.4167Z" fill="#220959"/>
<path d="M31.6678 39.6761H31.213V37.5893C31.213 34.9032 29.0278 32.7178 26.3416 32.7178H23.3345C20.6484 32.7178 18.463 34.903 18.463 37.5893V39.6761H18.0083C15.8466 39.6761 14.088 41.4347 14.088 43.5963V53.2558C14.088 55.4174 15.8466 57.176 18.0083 57.176H31.6678C33.8294 57.176 35.588 55.4174 35.588 53.2558V43.5964C35.588 41.4348 33.8294 39.6761 31.6678 39.6761ZM20.963 37.5893C20.963 36.2817 22.0269 35.2178 23.3345 35.2178H26.3416C27.6493 35.2178 28.713 36.2817 28.713 37.5893V39.6761H20.963V37.5893ZM33.088 53.2559C33.088 54.0392 32.4509 54.6762 31.6678 54.6762H18.0083C17.2251 54.6762 16.588 54.039 16.588 53.2559V43.5964C16.588 42.8133 17.2251 42.1763 18.0083 42.1763H31.6678C32.4509 42.1763 33.088 42.8134 33.088 43.5964V53.2559Z" fill="#220959"/>
<path d="M24.838 45.1343C24.1476 45.1343 23.588 45.694 23.588 46.3843V47.9259C23.588 48.6161 24.1476 49.1759 24.838 49.1759C25.5284 49.1759 26.088 48.6161 26.088 47.9259V46.3843C26.088 45.694 25.5284 45.1343 24.838 45.1343Z" fill="#220959"/>
<path d="M43.2075 46.5C43.5363 46.5 43.8588 46.3663 44.0913 46.1336C44.3238 45.9013 44.4575 45.5788 44.4575 45.25C44.4575 44.9212 44.3238 44.5987 44.0913 44.3662C43.8588 44.1337 43.5363 44 43.2075 44C42.8788 44 42.5563 44.1336 42.3238 44.3662C42.0913 44.5989 41.9575 44.9212 41.9575 45.25C41.9575 45.5788 42.0913 45.9013 42.3238 46.1336C42.5563 46.3663 42.8788 46.5 43.2075 46.5Z" fill="#220959"/>
</svg>
