<svg width="65" height="65" viewBox="0 0 65 65" fill="none" xmlns="http://www.w3.org/2000/svg">
<path d="M22.7746 46.6615C24.1673 45.2001 25.025 43.2246 25.025 41.0513V36.4791C25.025 31.9907 21.3733 28.3389 16.8848 28.3389C12.3962 28.3389 8.74453 31.9907 8.74453 36.4791V41.0513C8.74453 43.2245 9.60223 45.2 10.9949 46.6615C4.89366 46.889 0 51.9226 0 58.0784V63.7306C0 64.4316 0.568369 65.0001 1.26953 65.0001H32.5C33.2012 65.0001 33.7695 64.4316 33.7695 63.7306V58.0784C33.7695 51.9226 28.8759 46.889 22.7746 46.6615ZM11.2836 36.4792C11.2836 33.3907 13.7963 30.8781 16.8848 30.8781C19.9733 30.8781 22.4859 33.3907 22.4859 36.4792V41.0514C22.4859 44.14 19.9733 46.6526 16.8848 46.6526C13.7963 46.6526 11.2836 44.14 11.2836 41.0514V36.4792ZM31.2305 62.4611H2.53906V58.0784C2.53906 53.1781 6.52564 49.1917 11.4258 49.1917H22.3438C27.2439 49.1917 31.2305 53.1781 31.2305 58.0784V62.4611Z" fill="#220959"/>
<path d="M46.6007 46.8457C46.2668 46.8457 45.9393 46.9814 45.7031 47.2177C45.467 47.4538 45.3311 47.7813 45.3311 48.1152C45.3311 48.4491 45.467 48.7767 45.7031 49.0127C45.9393 49.2488 46.2668 49.3848 46.6007 49.3848C46.9346 49.3848 47.2621 49.2489 47.4982 49.0127C47.7344 48.7767 47.8702 48.4491 47.8702 48.1152C47.8702 47.7813 47.7344 47.4538 47.4982 47.2177C47.2621 46.9814 46.9346 46.8457 46.6007 46.8457Z" fill="#220959"/>
<path d="M5.45162 22.944H17.4672V25.7569C17.4672 26.2704 17.7766 26.7333 18.2509 26.9298C18.408 26.9948 18.5729 27.0264 18.7365 27.0264C19.0668 27.0264 19.3916 26.8974 19.6344 26.6546L23.345 22.9439H26.2865C29.2927 22.9439 31.7382 20.4982 31.7382 17.4922V5.45162C31.7383 2.44563 29.2927 0 26.2867 0H5.45162C2.44563 0 0 2.44563 0 5.45162V17.4922C0 20.4984 2.44563 22.944 5.45162 22.944ZM2.53906 5.45162C2.53906 3.84566 3.84566 2.53906 5.45162 2.53906H26.2865C27.8926 2.53906 29.1992 3.84566 29.1992 5.45162V17.4922C29.1992 19.0982 27.8926 20.4048 26.2867 20.4048H22.8192C22.4825 20.4048 22.1595 20.5386 21.9215 20.7766L20.0064 22.6919V21.6743C20.0064 20.9733 19.438 20.4048 18.7369 20.4048H5.45162C3.84566 20.4048 2.53906 19.0982 2.53906 17.4922V5.45162Z" fill="#220959"/>
<path d="M60.4932 0H42.8981C40.413 0 38.3913 2.02173 38.3913 4.50684V14.8525C38.3913 17.3376 40.413 19.3593 42.8981 19.3593H47.898V20.9937C47.4785 20.9101 47.0449 20.8654 46.6011 20.8654C46.6008 20.8654 46.6011 20.8654 46.6008 20.8654C42.9462 20.8654 39.9726 23.8389 39.9724 27.4935V28.7837L39.9722 31.0597C39.9722 32.6019 40.503 34.0218 41.3897 35.1491H40.3035C40.3032 35.1491 40.3035 35.1491 40.3032 35.1491C36.3599 35.1491 33.1514 38.3574 33.1512 42.3007L33.1508 48.115C33.1508 48.4517 33.2845 48.7746 33.5226 49.0128C33.7607 49.2508 34.0836 49.3846 34.4203 49.3846H41.5218C42.223 49.3846 42.7914 48.8161 42.7914 48.1151C42.7914 47.4141 42.223 46.8456 41.5218 46.8456H35.6898L35.6901 42.3009C35.6902 39.7574 37.7597 37.6881 40.3033 37.6882L45.3308 37.6884V42.8678C45.3308 43.5688 45.8992 44.1373 46.6003 44.1373C47.3015 44.1373 47.8699 43.5688 47.8699 42.8678V37.6886L52.8976 37.6888C55.4411 37.6891 57.5103 39.7584 57.5103 42.3018V46.8457H51.6781C50.9769 46.8457 50.4085 47.4142 50.4085 48.1152C50.4085 48.8163 50.9769 49.3848 51.6781 49.3848H58.7798C59.481 49.3848 60.0494 48.8163 60.0494 48.1152V42.3019C60.0494 38.3585 56.8411 35.1501 52.8977 35.1499H51.8111C52.6979 34.0225 53.2289 32.6028 53.2291 31.0607L53.2292 27.7314C53.2292 27.7313 53.2292 27.7313 53.2292 27.7313V27.4944C53.2293 25.2394 52.0966 23.245 50.3713 22.0469L53.0588 19.3595H60.4932C62.9783 19.3595 65 17.3377 65 14.8526V4.50684C65 2.02173 62.9783 0 60.4932 0ZM46.5979 35.1496C44.3441 35.1481 42.5109 33.314 42.511 31.0601V30.0535H43.8617C43.8619 30.0535 43.8619 30.0535 43.8622 30.0535C45.6176 30.0534 47.2887 29.4154 48.5855 28.2744L50.6899 29.5109L50.6897 31.0605C50.6896 33.3145 48.8563 35.1485 46.6026 35.1496H46.5979ZM49.0179 25.5835C48.4832 25.2691 47.8 25.3875 47.4018 25.8625C46.5219 26.9124 45.2319 27.5144 43.8622 27.5144H43.8619L42.5113 27.5143V27.4939C42.5114 25.2389 44.346 23.4044 46.601 23.4046C48.5107 23.4047 50.1188 24.7206 50.5663 26.4932L49.0179 25.5835ZM62.461 14.8525C62.461 15.9376 61.5783 16.8203 60.4932 16.8203H52.5328C52.1962 16.8203 51.8732 16.9541 51.6352 17.1921L50.4371 18.3902V18.0899C50.4371 17.3889 49.8687 16.8204 49.1676 16.8204H42.8981C41.8131 16.8204 40.9303 15.9377 40.9303 14.8526V4.50684C40.9303 3.42177 41.8131 2.53906 42.8981 2.53906H60.4932C61.5783 2.53906 62.461 3.42177 62.461 4.50684V14.8525Z" fill="#220959"/>
<path d="M7.78641 9.69482H24.248C24.9492 9.69482 25.5176 9.12633 25.5176 8.42529C25.5176 7.72426 24.9492 7.15576 24.248 7.15576H7.78641C7.08525 7.15576 6.51688 7.72426 6.51688 8.42529C6.51688 9.12633 7.08537 9.69482 7.78641 9.69482Z" fill="#220959"/>
<path d="M7.78641 15.7886H19.1699C19.8711 15.7886 20.4394 15.2201 20.4394 14.519C20.4394 13.818 19.8711 13.2495 19.1699 13.2495H7.78641C7.08525 13.2495 6.51688 13.818 6.51688 14.519C6.51688 15.2201 7.08537 15.7886 7.78641 15.7886Z" fill="#220959"/>
<path d="M24.248 13.2488C23.9142 13.2488 23.5866 13.3846 23.3505 13.6209C23.1144 13.8569 22.9785 14.1844 22.9785 14.5183C22.9785 14.8536 23.1144 15.1797 23.3505 15.4171C23.5866 15.6533 23.9142 15.7878 24.248 15.7878C24.5819 15.7878 24.9095 15.6533 25.1456 15.4171C25.3817 15.1797 25.5176 14.8536 25.5176 14.5183C25.5176 14.1844 25.3817 13.8569 25.1456 13.6209C24.9095 13.3847 24.5819 13.2488 24.248 13.2488Z" fill="#220959"/>
</svg>
