<svg width="28" height="28" viewBox="0 0 28 28" fill="none" xmlns="http://www.w3.org/2000/svg">
<path d="M14.3402 10.4858C14.1958 10.4858 14.0552 10.5444 13.953 10.6461C13.8513 10.7478 13.7933 10.8883 13.7933 11.0327C13.7933 11.1765 13.8513 11.3176 13.953 11.4194C14.0552 11.5211 14.1958 11.5796 14.3402 11.5796C14.484 11.5796 14.6251 11.5211 14.7268 11.4194C14.8285 11.3176 14.887 11.1765 14.887 11.0327C14.887 10.8889 14.8285 10.7478 14.7268 10.6461C14.6251 10.5444 14.484 10.4858 14.3402 10.4858Z" fill="#220959"/>
<path d="M20.7266 26.9062C20.5827 26.9062 20.4416 26.9648 20.3399 27.0665C20.2382 27.1682 20.1797 27.3093 20.1797 27.4531C20.1797 27.597 20.2382 27.738 20.3399 27.8398C20.4416 27.9415 20.5827 28 20.7266 28C20.8704 28 21.0115 27.9415 21.1132 27.8398C21.2149 27.738 21.2734 27.597 21.2734 27.4531C21.2734 27.3093 21.2149 27.1682 21.1132 27.0665C21.0115 26.9648 20.8704 26.9062 20.7266 26.9062Z" fill="#220959"/>
<path d="M25.0626 20.0965H23.2674C23.8651 19.4673 24.2331 18.6179 24.2331 17.6836V16.4265V15.8449V15.7141C24.2331 14.2206 23.2942 12.943 21.976 12.4385C22.035 11.9742 22.0651 11.5025 22.0651 11.0326C22.0651 4.94922 17.116 0 11.0325 0C4.94922 0 0 4.94922 0 11.0325C0 17.091 4.90886 22.0239 10.958 22.0642C10.9824 22.0676 11.0072 22.0699 11.0325 22.0699C11.0576 22.0699 11.0822 22.0676 11.1064 22.0643C12.0098 22.0583 12.9014 21.9425 13.7631 21.7226C13.5652 22.1176 13.4531 22.5628 13.4531 23.0339V27.4531C13.4531 27.7552 13.698 28 14 28H18.5391C18.8411 28 19.0859 27.7552 19.0859 27.4531C19.0859 27.1511 18.8411 26.9062 18.5391 26.9062H14.5469V23.0338C14.5469 22.0172 15.374 21.1901 16.3906 21.1901H17.2949V23.7467C17.2949 23.9659 17.4258 24.1639 17.6274 24.2499C17.8291 24.3358 18.0626 24.293 18.2206 24.1411L20.1797 22.2587V25.2656C20.1797 25.5677 20.4245 25.8125 20.7266 25.8125C21.0286 25.8125 21.2734 25.5677 21.2734 25.2656V22.2587L23.2325 24.1411C23.3364 24.2409 23.4729 24.2937 23.6115 24.2937C23.6837 24.2937 23.7566 24.2793 23.8257 24.2499C24.0274 24.164 24.1583 23.966 24.1583 23.7468V21.1902H25.0626C26.0792 21.1902 26.9062 22.0173 26.9062 23.0339V26.9062H22.9141C22.612 26.9062 22.3672 27.1511 22.3672 27.4531C22.3672 27.7552 22.612 28 22.9141 28H27.4531C27.7552 28 28 27.7552 28 27.4531V23.0338C28 21.4141 26.6822 20.0965 25.0626 20.0965ZM3.92585 16.3052C3.57968 16.433 3.24636 16.5923 2.92934 16.7814C1.87294 15.2967 1.21428 13.5105 1.10906 11.5794H5.0103V14.933C4.4263 15.1402 3.99339 15.6688 3.92585 16.3052ZM2.92923 5.2838C3.25473 5.47799 3.59723 5.64085 3.9533 5.7703C4.07351 6.32942 4.4794 6.78349 5.0102 6.97173V10.4857H1.10901C1.21423 8.55466 1.87288 6.76845 2.92923 5.2838ZM19.1361 5.28407C20.1923 6.76873 20.8509 8.55477 20.9561 10.4857H17.0549V6.04844C17.79 5.92555 18.4931 5.66809 19.1361 5.28407ZM7.10369 15.9327C6.93864 15.4674 6.56934 15.0981 6.104 14.933V11.5794H9.48522C9.64983 12.0459 10.0196 12.4161 10.4857 12.5815V15.9327H7.10369ZM6.104 6.97173C6.51454 6.82615 6.85048 6.5217 7.03724 6.13244H10.4857V9.48839C10.0211 9.65316 9.65224 10.0214 9.4868 10.4857H6.104V6.97173ZM15.9611 15.9375H11.5794V12.5815C12.2159 12.3558 12.6732 11.7479 12.6732 11.035C12.6732 10.322 12.2159 9.71414 11.5794 9.48839V6.13244H15.9611V15.9375ZM11.0325 10.4881C11.3341 10.4881 11.5794 10.7334 11.5794 11.035C11.5794 11.3365 11.3341 11.5818 11.0325 11.5818C10.731 11.5818 10.4857 11.3365 10.4857 11.035C10.4857 10.7334 10.731 10.4881 11.0325 10.4881ZM11.5794 17.0312H15.8616C15.4383 19.1023 13.7118 20.7044 11.5794 20.9409V17.0312ZM11.5794 5.03869V1.12897C13.7117 1.36544 15.4382 2.96756 15.8616 5.03869H11.5794ZM10.4857 1.12962V5.03863H7.15132C7.05649 4.64745 6.82117 4.31085 6.50185 4.0851C7.20098 2.45749 8.7383 1.32694 10.4857 1.12962ZM5.55713 4.87829C5.85867 4.87829 6.104 5.12362 6.104 5.42516C6.104 5.72671 5.85867 5.97204 5.55713 5.97204C5.25558 5.97204 5.01025 5.72671 5.01025 5.42516C5.01025 5.12362 5.25558 4.87829 5.55713 4.87829ZM5.55713 15.9327C5.85867 15.9327 6.104 16.178 6.104 16.4796C6.104 16.7811 5.85867 17.0265 5.55713 17.0265C5.25558 17.0265 5.01025 16.7811 5.01025 16.4796C5.01025 16.178 5.25558 15.9327 5.55713 15.9327ZM7.10369 17.0265H10.4857V20.9397C8.68498 20.7363 7.11769 19.542 6.44897 17.8556C6.74931 17.6602 6.98201 17.3695 7.10369 17.0265ZM15.751 19.7807C16.3554 19.0194 16.7799 18.1092 16.9593 17.1147C17.0468 17.1309 17.1336 17.1504 17.22 17.1713V17.6836C17.22 18.0334 17.2721 18.371 17.3679 18.69C16.8629 19.1082 16.3212 19.4731 15.751 19.7807ZM18.3138 17.6836V16.9734H19.214C20.1833 16.9734 21.1041 16.6068 21.8032 15.9545L23.1394 16.7395V17.6836C23.1394 19.014 22.057 20.0964 20.7266 20.0964C19.3961 20.0964 18.3138 19.0141 18.3138 17.6836ZM23.1265 15.4634L21.9833 14.7918C21.753 14.6564 21.4587 14.7074 21.2872 14.9121C20.7719 15.527 20.0162 15.8797 19.214 15.8797H18.3138V15.8449V15.7141C18.3138 14.3836 19.3961 13.3013 20.7266 13.3013C21.9724 13.3013 23.0007 14.2502 23.1265 15.4634ZM20.7266 12.2075C18.793 12.2075 17.22 13.7805 17.22 15.7141V15.8449V16.0519C17.1651 16.0411 17.1101 16.0313 17.0549 16.022V13.7266V11.5794H20.9564C20.9449 11.7912 20.9265 12.0023 20.9018 12.2119C20.8437 12.209 20.7853 12.2075 20.7266 12.2075ZM18.4454 4.4199C17.9809 4.67841 17.4804 4.85816 16.9592 4.95485C16.7795 3.95899 16.354 3.04757 15.7481 2.28561C16.7673 2.83719 17.6793 3.56202 18.4454 4.4199ZM6.30946 2.28955C5.95071 2.74225 5.6583 3.24598 5.44097 3.78913C4.86309 3.82977 4.36696 4.17069 4.10813 4.65675C3.94116 4.5868 3.77809 4.50795 3.61971 4.4199C4.38397 3.56415 5.29337 2.84069 6.30946 2.28955ZM3.61971 17.6453C3.8022 17.5438 3.99109 17.4547 4.18491 17.3773C4.44697 17.7766 4.87813 18.0551 5.37595 18.11C5.59612 18.71 5.9132 19.2736 6.31001 19.7759C5.29364 19.2247 4.38408 18.5012 3.61971 17.6453ZM17.8595 19.6988C17.9586 19.8393 18.0676 19.9721 18.1857 20.0964H17.3231C17.5055 19.9697 17.6843 19.8369 17.8595 19.6988ZM18.3886 21.1902H19.7132L18.3886 22.4629V21.1902ZM23.0645 22.4629L21.7399 21.1902H23.0645V22.4629Z" fill="#220959"/>
</svg>
