<svg width="23" height="29" viewBox="0 0 23 29" fill="none" xmlns="http://www.w3.org/2000/svg">
<path d="M22.375 13.1406H20.0876V7.31049C20.0876 6.36669 19.3198 5.59887 18.376 5.59887H18.0497C17.8159 4.93963 17.1863 4.46606 16.4479 4.46606H16.0338C15.0969 4.46606 14.3346 5.22833 14.3346 6.16528C14.3346 7.10222 15.0969 7.86449 16.0338 7.86449H16.4479C17.1863 7.86449 17.8159 7.39092 18.0497 6.73168H18.376C18.6952 6.73168 18.9548 6.99132 18.9548 7.31049V13.1406H15.1908V10.095C15.1908 8.41748 13.8259 7.05266 12.1484 7.05266H11.0563C11.534 6.49181 11.8232 5.76579 11.8232 4.97316V3.8493V3.32934V3.21232C11.8232 1.44105 10.3821 0 8.61082 0C6.8395 0 5.3985 1.44105 5.3985 3.21232V3.32934V3.8493V4.97316C5.3985 5.76585 5.68765 6.49187 6.1653 7.05266H5.07327C3.39575 7.05266 2.03093 8.41748 2.03093 10.095V13.1406H0.625C0.31223 13.1406 0.0585938 13.3942 0.0585938 13.707V17.332C0.0585938 17.6449 0.31223 17.8984 0.625 17.8984H2.47165V28.4336C2.47165 28.7464 2.72529 29 3.03806 29H6.24375C6.55652 29 6.81016 28.7464 6.81016 28.4336C6.81016 28.1208 6.55652 27.8672 6.24375 27.8672H3.60441V21.0703H13.8099C14.1226 21.0703 14.3763 20.8167 14.3763 20.5039C14.3763 20.1911 14.1226 19.9375 13.8099 19.9375H3.60447V17.8984H19.3956V27.8672H10.7749C10.4621 27.8672 10.2085 28.1208 10.2085 28.4336C10.2085 28.7464 10.4621 29 10.7749 29H19.9619C20.2747 29 20.5283 28.7464 20.5283 28.4336V17.8984H22.375C22.6878 17.8984 22.9414 17.6449 22.9414 17.332V13.707C22.9414 13.3942 22.6878 13.1406 22.375 13.1406ZM16.4479 6.73168H16.0338C15.7215 6.73168 15.4674 6.47759 15.4674 6.16528C15.4674 5.85296 15.7215 5.59887 16.0338 5.59887H16.4479C16.7602 5.59887 17.0143 5.85296 17.0143 6.16528C17.0143 6.47759 16.7602 6.73168 16.4479 6.73168ZM6.59821 8.18548H7.51233L6.59821 9.0638V8.18548ZM10.6235 8.18548V9.06386L9.70931 8.18548H10.6235ZM6.53131 3.21232C6.53131 2.06568 7.46419 1.13281 8.61082 1.13281C9.63041 1.13281 10.481 1.87039 10.657 2.84002L9.77365 2.32108C9.53514 2.18095 9.23035 2.23357 9.05262 2.44563C8.60674 2.97771 7.95282 3.28289 7.25858 3.28289H6.53131V3.21232ZM6.53131 4.97316V4.4157H7.25858C8.12535 4.4157 8.9497 4.09512 9.58356 3.52322L10.6904 4.17345V4.97316C10.6904 6.11979 9.75745 7.05266 8.61082 7.05266C7.46419 7.05266 6.53131 6.11979 6.53131 4.97316ZM3.16375 10.095C3.16375 9.04211 4.02032 8.18548 5.07327 8.18548H5.46539V10.3936C5.46539 10.6206 5.60099 10.8257 5.80983 10.9146C6.01872 11.0036 6.26052 10.9593 6.42426 10.802L8.04441 9.24522V10.5352C8.04441 10.848 8.29805 11.1016 8.61082 11.1016C8.92359 11.1016 9.17722 10.848 9.17722 10.5352V9.24522L10.7974 10.802C10.905 10.9054 11.0464 10.96 11.19 10.96C11.2648 10.96 11.3403 10.9452 11.4119 10.9147C11.6208 10.8257 11.7563 10.6206 11.7563 10.3936V8.18553H12.1484C13.2013 8.18553 14.0579 9.04217 14.0579 10.0951V13.1406H3.16375V10.095ZM21.8086 16.7656H1.19141V14.2734H21.8086V16.7656Z" fill="#220959"/>
<path d="M8.50937 27.8672C8.36035 27.8672 8.21427 27.9278 8.10892 28.0331C8.00357 28.1385 7.94296 28.2846 7.94296 28.4336C7.94296 28.5826 8.00351 28.7287 8.10892 28.834C8.21433 28.9394 8.36035 29 8.50937 29C8.65834 29 8.80447 28.9394 8.90976 28.834C9.01512 28.7287 9.07578 28.5826 9.07578 28.4336C9.07578 28.2846 9.01517 28.1385 8.90976 28.0331C8.80447 27.9278 8.65834 27.8672 8.50937 27.8672Z" fill="#220959"/>
<path d="M16.1096 21.0703C16.4224 21.0703 16.676 20.8167 16.676 20.5039C16.676 20.1911 16.4224 19.9375 16.1096 19.9375H16.0755C15.7627 19.9375 15.5091 20.1911 15.5091 20.5039C15.5091 20.8167 15.7627 21.0703 16.0755 21.0703H16.1096Z" fill="#220959"/>
</svg>
