<svg width="27" height="31" viewBox="0 0 27 31" fill="none" xmlns="http://www.w3.org/2000/svg">
<path d="M6.506 4.34651C6.6521 4.34651 6.79875 4.2939 6.91494 4.18739L6.91603 4.18643C7.16252 3.96046 7.17868 3.57793 6.95266 3.33144C6.72688 3.08496 6.34325 3.06879 6.09671 3.29475C5.85016 3.52071 5.83351 3.90373 6.05953 4.15022C6.17893 4.28046 6.34216 4.34651 6.506 4.34651Z" fill="#220959"/>
<path d="M26.9375 12.2023C26.881 8.87701 25.5401 5.77986 23.162 3.4815C20.7844 1.18382 17.6406 -0.0523668 14.317 0.00170142C12.1396 0.0368791 10.0057 0.644708 8.14566 1.75962C7.85891 1.93151 7.76573 2.30339 7.93762 2.5902C8.10945 2.87701 8.48127 2.97019 8.76826 2.79823C10.446 1.79255 12.3715 1.24418 14.3365 1.21245C14.398 1.21149 14.4589 1.211 14.5202 1.211C20.6131 1.211 25.623 6.11341 25.7267 12.2229C25.7735 14.975 24.8123 18.1792 23.2779 20.386C22.5729 21.4 22.2003 22.5903 22.2003 23.8284V25.5569L11.7698 29.517V27.9756C11.7698 26.6736 10.7106 25.6144 9.40861 25.6144H7.35874C6.04814 25.6144 4.98179 24.5481 4.98179 23.2374V19.7758C4.98179 19.4414 4.71066 19.1703 4.37632 19.1703H1.46257L3.29211 12.5801C3.3067 12.5274 3.31415 12.4729 3.31415 12.4181C3.31415 10.0711 4.03175 7.8241 5.38927 5.9199C5.58338 5.64763 5.51999 5.26951 5.24771 5.0754C4.97561 4.88129 4.59744 4.94462 4.40327 5.2169C2.9146 7.30491 2.12029 9.76426 2.10352 12.3347L0.0827083 19.6138C0.0320912 19.7961 0.0696304 19.9916 0.184124 20.1422C0.298618 20.2929 0.476928 20.3813 0.666137 20.3813H3.77085V23.2374C3.77085 25.2157 5.38037 26.8252 7.35874 26.8252H9.40855C10.0428 26.8252 10.5588 27.3412 10.5588 27.9755V30.3945C10.5588 30.5935 10.6566 30.7798 10.8204 30.8928C10.9229 30.9636 11.0431 30.9999 11.1643 30.9999C11.2368 30.9999 11.3096 30.9869 11.3792 30.9605L23.0207 26.5406C23.2558 26.4513 23.4112 26.226 23.4112 25.9746V23.8284C23.4112 22.8385 23.7089 21.8872 24.2722 21.0772C25.9678 18.6384 26.9891 15.2378 26.9375 12.2023Z" fill="#220959"/>
<path d="M8.07138 12.8223C8.07162 15.001 9.16068 17.0163 10.9847 18.2132C11.318 18.4319 11.5541 18.7757 11.639 19.1618V21.7938C11.639 21.9544 11.7028 22.1084 11.8163 22.2219L13.0055 23.4111C13.1191 23.5246 13.2731 23.5884 13.4337 23.5884H15.5993C15.7599 23.5884 15.9138 23.5246 16.0274 23.4111L17.2166 22.2219C17.3301 22.1084 17.394 21.9544 17.394 21.7938V19.1616C17.4786 18.7746 17.7103 18.4338 18.0358 18.2213C19.8678 17.0252 20.9616 15.0066 20.9616 12.8216C20.9616 11.0998 20.291 9.48107 19.0732 8.26371C17.8559 7.04666 16.2378 6.37659 14.5165 6.37659C14.5159 6.37659 14.5152 6.37659 14.5147 6.37659C10.9614 6.3775 8.07096 9.26903 8.07138 12.8223ZM16.1829 21.543L15.3484 22.3775H13.6844L12.8499 21.543V19.7047H16.183V21.543H16.1829ZM14.515 7.58746C14.5154 7.58746 14.5159 7.58746 14.5164 7.58746C15.9141 7.58746 17.2284 8.13172 18.217 9.12003C19.2058 10.1087 19.7504 11.4232 19.7504 12.8216C19.7504 14.5961 18.8619 16.2356 17.3736 17.2073C16.9019 17.5153 16.5389 17.9692 16.3342 18.4938H12.6978C12.4919 17.9696 12.1255 17.5135 11.6489 17.2007C10.1672 16.2284 9.28238 14.5915 9.2822 12.8222C9.28202 9.9365 11.6294 7.58825 14.515 7.58746Z" fill="#220959"/>
<path d="M15.1219 4.65182V3.02747C15.1219 2.69307 14.8508 2.422 14.5164 2.422C14.1821 2.422 13.9109 2.69307 13.9109 3.02747V4.65188C13.9109 4.98628 14.1821 5.25735 14.5164 5.25735C14.8508 5.25735 15.1219 4.98622 15.1219 4.65182Z" fill="#220959"/>
<path d="M4.96931 12.8265C4.96931 13.1609 5.24044 13.432 5.57478 13.432H6.5069C6.84124 13.432 7.11237 13.1609 7.11237 12.8265C7.11237 12.4921 6.84124 12.2211 6.5069 12.2211H5.57478C5.24044 12.2211 4.96931 12.4921 4.96931 12.8265Z" fill="#220959"/>
<path d="M23.4679 13.4221C23.8022 13.4221 24.0734 13.1511 24.0734 12.8167C24.0734 12.4823 23.8022 12.2112 23.4679 12.2112H22.4005C22.0661 12.2112 21.795 12.4823 21.795 12.8167C21.795 13.1511 22.0661 13.4221 22.4005 13.4221H23.4679Z" fill="#220959"/>
<path d="M20.6017 7.59051L21.2722 6.92007C21.5086 6.68364 21.5086 6.30025 21.2722 6.06376C21.0357 5.82738 20.6524 5.82738 20.4159 6.06376L19.7454 6.73419C19.509 6.97063 19.509 7.35401 19.7454 7.59051C19.8637 7.7087 20.0186 7.76785 20.1736 7.76785C20.3285 7.76785 20.4835 7.7087 20.6017 7.59051Z" fill="#220959"/>
<path d="M8.42704 7.59055C8.54529 7.70879 8.70023 7.76789 8.85517 7.76789C9.01011 7.76789 9.16505 7.70879 9.2833 7.59055C9.51973 7.35411 9.51973 6.97073 9.2833 6.73423L8.61982 6.07076C8.38333 5.83432 8.00007 5.83432 7.76351 6.07076C7.52707 6.30719 7.52707 6.69058 7.76351 6.92707L8.42704 7.59055Z" fill="#220959"/>
<path d="M14.5213 14.5745C14.1441 14.5745 13.8372 14.321 13.8372 14.0095C13.8372 13.6751 13.566 13.404 13.2317 13.404C12.8973 13.404 12.6262 13.6751 12.6262 14.0095C12.6262 14.7908 13.1676 15.4554 13.9171 15.6923C13.9306 16.0148 14.1955 16.2723 14.5213 16.2723C14.8471 16.2723 15.112 16.0148 15.1255 15.6923C15.8751 15.4554 16.4165 14.7908 16.4165 14.0095C16.4165 13.0303 15.5664 12.2336 14.5213 12.2336C14.4218 12.2336 14.3259 12.2162 14.2364 12.1819C14.2364 12.1819 14.2363 12.1819 14.2363 12.1818C13.9938 12.0888 13.8372 11.8873 13.8372 11.6686C13.8372 11.3571 14.1441 11.1037 14.5213 11.1037C14.8986 11.1037 15.2056 11.3571 15.2056 11.6686C15.2056 12.003 15.4767 12.2741 15.811 12.2741C16.1454 12.2741 16.4165 12.003 16.4165 11.6686C16.4165 10.8878 15.8757 10.2235 15.1268 9.98623V9.96655C15.1268 9.63215 14.8557 9.36108 14.5213 9.36108C14.187 9.36108 13.9159 9.63215 13.9159 9.96655V9.98623C13.167 10.2235 12.6262 10.8878 12.6262 11.6686C12.6262 12.3929 13.0879 13.0381 13.8023 13.3124C13.8025 13.3124 13.8026 13.3125 13.8028 13.3126C14.0313 13.4002 14.273 13.4446 14.5213 13.4446C14.8986 13.4446 15.2056 13.698 15.2056 14.0095C15.2056 14.321 14.8986 14.5745 14.5213 14.5745Z" fill="#220959"/>
</svg>
