<svg width="30" height="30" viewBox="0 0 30 30" fill="none" xmlns="http://www.w3.org/2000/svg">
<path d="M7.43865 24.1503C7.74135 23.7146 7.91936 23.1861 7.91936 22.6166C7.91936 21.1304 6.71021 19.9213 5.22404 19.9213C3.73787 19.9213 2.52873 21.1304 2.52873 22.6166C2.52873 23.1861 2.70674 23.7146 3.00943 24.1503C1.32902 24.2764 0 25.6831 0 27.3953V29.4135C0 29.737 0.262324 29.9994 0.585938 29.9994H9.86215C10.1858 29.9994 10.4481 29.737 10.4481 29.4135V27.3953C10.4481 25.6831 9.11912 24.2764 7.43865 24.1503ZM5.22404 21.0931C6.06404 21.0931 6.74748 21.7765 6.74748 22.6166C6.74748 23.4566 6.06404 24.14 5.22404 24.14C4.38404 24.14 3.70061 23.4566 3.70061 22.6166C3.70061 21.7765 4.38404 21.0931 5.22404 21.0931ZM9.27621 28.8275H1.17188V27.3953C1.17188 26.2465 2.10645 25.3119 3.25523 25.3119H4.63816V27.0697C4.63816 27.3933 4.90049 27.6556 5.2241 27.6556C5.54771 27.6556 5.81004 27.3933 5.81004 27.0697V25.3119H7.19297C8.3417 25.3119 9.27633 26.2465 9.27633 27.3953V28.8275H9.27621Z" fill="#220959"/>
<path d="M26.9906 24.1503C27.2933 23.7146 27.4713 23.1861 27.4713 22.6166C27.4713 21.1304 26.2621 19.9213 24.776 19.9213C23.2898 19.9213 22.0806 21.1304 22.0806 22.6166C22.0806 23.1861 22.2587 23.7146 22.5613 24.1503C20.8809 24.2764 19.5519 25.6831 19.5519 27.3953V29.4135C19.5519 29.737 19.8142 29.9994 20.1378 29.9994H29.4141C29.7377 29.9994 30 29.737 30 29.4135V27.3953C30 25.6831 28.671 24.2764 26.9906 24.1503ZM24.776 21.0931C25.616 21.0931 26.2994 21.7765 26.2994 22.6166C26.2994 23.4566 25.616 24.14 24.776 24.14C23.936 24.14 23.2525 23.4566 23.2525 22.6166C23.2525 21.7765 23.9359 21.0931 24.776 21.0931ZM28.8281 28.8275H20.7238V27.3953C20.7238 26.2465 21.6584 25.3119 22.8071 25.3119H24.1901V27.0697C24.1901 27.3933 24.4524 27.6556 24.776 27.6556C25.0996 27.6556 25.362 27.3933 25.362 27.0697V25.3119H26.7449C27.8936 25.3119 28.8282 26.2465 28.8282 27.3953V28.8275H28.8281Z" fill="#220959"/>
<path d="M0.585938 10.0797H9.86215C10.1858 10.0797 10.4481 9.81733 10.4481 9.49377V7.47557C10.4481 5.7634 9.11906 4.35674 7.43865 4.23059C7.74135 3.79489 7.91936 3.26643 7.91936 2.6969C7.91936 1.21073 6.71021 0.00158691 5.22404 0.00158691C3.73787 0.00158691 2.52873 1.21073 2.52873 2.6969C2.52873 3.26643 2.70674 3.79489 3.00943 4.23059C1.32902 4.35674 0 5.76334 0 7.47551V9.49372C0 9.81733 0.262324 10.0797 0.585938 10.0797ZM5.22404 1.17346C6.06404 1.17346 6.74748 1.85684 6.74748 2.6969C6.74748 3.53696 6.06404 4.22034 5.22404 4.22034C4.38404 4.22034 3.70061 3.53696 3.70061 2.6969C3.70061 1.85684 4.38404 1.17346 5.22404 1.17346ZM1.17188 7.47551C1.17188 6.32678 2.10645 5.39221 3.25523 5.39221H4.63816V7.15002C4.63816 7.47358 4.90049 7.73596 5.2241 7.73596C5.54771 7.73596 5.81004 7.47358 5.81004 7.15002V5.39221H7.19297C8.3417 5.39221 9.27633 6.32678 9.27633 7.47557V8.90784H1.17188V7.47551Z" fill="#220959"/>
<path d="M26.9906 4.22961C27.2933 3.79391 27.4713 3.26545 27.4713 2.69592C27.4713 1.20975 26.2621 0.000610352 24.776 0.000610352C23.2898 0.000610352 22.0806 1.20975 22.0806 2.69592C22.0806 3.26545 22.2587 3.79391 22.5613 4.22961C20.8809 4.35577 19.5519 5.76243 19.5519 7.47459V9.4928C19.5519 9.81635 19.8142 10.0787 20.1378 10.0787H29.4141C29.7377 10.0787 30 9.81635 30 9.4928V7.47459C30 5.76237 28.671 4.35577 26.9906 4.22961ZM24.776 1.17249C25.616 1.17249 26.2994 1.85586 26.2994 2.69592C26.2994 3.53598 25.616 4.21936 24.776 4.21936C23.936 4.21936 23.2525 3.53598 23.2525 2.69592C23.2525 1.85586 23.9359 1.17249 24.776 1.17249ZM28.8281 8.90686H20.7238V7.47459C20.7238 6.32586 21.6584 5.39123 22.8071 5.39123H24.1901V7.14905C24.1901 7.4726 24.4524 7.73498 24.776 7.73498C25.0996 7.73498 25.362 7.4726 25.362 7.14905V5.39123H26.7449C27.8936 5.39123 28.8282 6.32581 28.8282 7.47459V8.90686H28.8281Z" fill="#220959"/>
<path d="M15.0076 18.8666C14.8535 18.8666 14.7023 18.9292 14.5928 19.0383C14.4838 19.1472 14.4217 19.2984 14.4217 19.4525C14.4217 19.6066 14.4838 19.7578 14.5928 19.8667C14.7023 19.9757 14.8535 20.0385 15.0076 20.0385C15.1617 20.0385 15.3129 19.9758 15.4219 19.8667C15.5309 19.7578 15.5936 19.6066 15.5936 19.4525C15.5936 19.2984 15.5309 19.1472 15.4219 19.0383C15.3129 18.9293 15.1617 18.8666 15.0076 18.8666Z" fill="#220959"/>
<path d="M20.224 19.4525V17.4343C20.224 15.7221 18.895 14.3155 17.2146 14.1893C17.5173 13.7536 17.6953 13.2252 17.6953 12.6556C17.6953 11.1695 16.4862 9.96033 15 9.96033C13.5138 9.96033 12.3047 11.1695 12.3047 12.6556C12.3047 13.2252 12.4827 13.7536 12.7854 14.1893C11.105 14.3155 9.77596 15.7221 9.77596 17.4343V19.4525C9.77596 19.7761 10.0383 20.0385 10.3619 20.0385H12.6562C12.9799 20.0385 13.2422 19.7761 13.2422 19.4525C13.2422 19.129 12.9799 18.8666 12.6562 18.8666H10.9478V17.4343C10.9478 16.2856 11.8824 15.351 13.0312 15.351H14.4141V17.0554C14.4141 17.379 14.6764 17.6414 15 17.6414C15.3236 17.6414 15.5859 17.379 15.5859 17.0554V15.351H16.9689C18.1176 15.351 19.0522 16.2855 19.0522 17.4343V18.8666H17.3437C17.0201 18.8666 16.7578 19.129 16.7578 19.4525C16.7578 19.7761 17.0201 20.0385 17.3437 20.0385H19.6381C19.9617 20.0385 20.224 19.7761 20.224 19.4525ZM15 11.1322C15.84 11.1322 16.5234 11.8156 16.5234 12.6556C16.5234 13.4957 15.84 14.1791 15 14.1791C14.16 14.1791 13.4766 13.4957 13.4766 12.6556C13.4766 11.8156 14.16 11.1322 15 11.1322Z" fill="#220959"/>
<path d="M8.41799 13.2416H5.80998V11.7181C5.80998 11.3946 5.54766 11.1322 5.22404 11.1322C4.90043 11.1322 4.63811 11.3946 4.63811 11.7181V13.8275C4.63811 14.1511 4.90043 14.4135 5.22404 14.4135H8.41793C8.74154 14.4135 9.00387 14.1511 9.00387 13.8275C9.00387 13.504 8.74154 13.2416 8.41799 13.2416Z" fill="#220959"/>
<path d="M8.41799 15.5853H5.22404C4.90043 15.5853 4.63811 15.8477 4.63811 16.1713V18.2806C4.63811 18.6042 4.90043 18.8666 5.22404 18.8666C5.54766 18.8666 5.80998 18.6042 5.80998 18.2806V16.7572H8.41793C8.74154 16.7572 9.00387 16.4948 9.00387 16.1713C9.00387 15.8477 8.74154 15.5853 8.41799 15.5853Z" fill="#220959"/>
<path d="M21.582 14.4135H24.7759C25.0995 14.4135 25.3618 14.1511 25.3618 13.8275V11.7181C25.3618 11.3946 25.0995 11.1322 24.7759 11.1322C24.4523 11.1322 24.19 11.3946 24.19 11.7181V13.2416H21.582C21.2584 13.2416 20.9961 13.504 20.9961 13.8275C20.9961 14.1511 21.2585 14.4135 21.582 14.4135Z" fill="#220959"/>
<path d="M21.582 16.7572H24.19V18.2806C24.19 18.6042 24.4523 18.8666 24.7759 18.8666C25.0995 18.8666 25.3618 18.6042 25.3618 18.2806V16.1713C25.3618 15.8477 25.0995 15.5853 24.7759 15.5853H21.582C21.2584 15.5853 20.9961 15.8477 20.9961 16.1713C20.9961 16.4948 21.2585 16.7572 21.582 16.7572Z" fill="#220959"/>
</svg>
