<svg width="67" height="67" viewBox="0 0 67 67" fill="none" xmlns="http://www.w3.org/2000/svg">
<path d="M33.5 64.3828C33.1558 64.3828 32.8182 64.5227 32.5748 64.7662C32.3314 65.0098 32.1914 65.3472 32.1914 65.6914C32.1914 66.0356 32.3313 66.3732 32.5748 66.6164C32.8182 66.8598 33.1558 67 33.5 67C33.8442 67 34.1818 66.86 34.425 66.6164C34.6686 66.3732 34.8086 66.0356 34.8086 65.6914C34.8086 65.3472 34.6686 65.0096 34.425 64.7662C34.1818 64.5227 33.8442 64.3828 33.5 64.3828Z" fill="#220959"/>
<path d="M39.5711 48.0971C41.0066 46.5908 41.8907 44.5545 41.8907 42.3143V37.6014C41.8907 32.9749 38.1267 29.2107 33.5 29.2107C28.8733 29.2107 25.1093 32.9749 25.1093 37.6014V42.3143C25.1093 44.5544 25.9934 46.5907 27.4289 48.0971C21.1399 48.3315 16.0957 53.5199 16.0957 59.8652V65.6914C16.0957 66.414 16.6817 67 17.4043 67H28.2656C28.9882 67 29.5742 66.414 29.5742 65.6914C29.5742 64.9688 28.9882 64.3828 28.2656 64.3828H18.7129V59.8653C18.7129 54.8143 22.8221 50.7051 27.873 50.7051H39.127C44.1779 50.7051 48.2871 54.8143 48.2871 59.8653V64.3828H38.7344C38.0118 64.3828 37.4258 64.9688 37.4258 65.6914C37.4258 66.414 38.0118 67 38.7344 67H49.5957C50.3183 67 50.9043 66.414 50.9043 65.6914V59.8653C50.9043 53.5199 45.8601 48.3315 39.5711 48.0971ZM27.7265 37.6015C27.7265 34.418 30.3165 31.828 33.5 31.828C36.6835 31.828 39.2735 34.418 39.2735 37.6015V42.3144C39.2735 45.498 36.6835 48.0879 33.5 48.0879C30.3165 48.0879 27.7265 45.498 27.7265 42.3144V37.6015Z" fill="#220959"/>
<path d="M66.6169 19.9729L59.4759 12.8319C59.1016 12.4577 58.5388 12.346 58.0498 12.5482C57.5609 12.7508 57.242 13.2279 57.242 13.7572V16.496H46.054C45.3314 16.496 44.7454 17.082 44.7454 17.8046V32.4967C44.7454 33.2193 45.3314 33.8053 46.054 33.8053H52.3023C53.0249 33.8053 53.6109 33.2193 53.6109 32.4967V25.3614H57.242V28.0392C57.242 28.5685 57.5609 29.0456 58.0498 29.2482C58.5388 29.4505 59.1016 29.3388 59.4759 28.9645L66.6169 21.8237C66.8622 21.5782 67.0002 21.2454 67.0002 20.8983C67.0002 20.5513 66.8622 20.2184 66.6169 19.9729ZM59.859 24.88V24.0528C59.859 23.3302 59.273 22.7442 58.5504 22.7442H52.3022C51.5796 22.7442 50.9936 23.3302 50.9936 24.0528V31.1881H47.3625V19.1132H58.5504C59.273 19.1132 59.859 18.5272 59.859 17.8046V16.9166L63.8408 20.8983L59.859 24.88Z" fill="#220959"/>
<path d="M22.2549 32.4967V17.8044C22.2549 17.0818 21.6689 16.4958 20.9463 16.4958H9.7582V13.7572C9.7582 13.2279 9.4393 12.7508 8.95041 12.5482C8.46139 12.346 7.89843 12.4577 7.5243 12.8319L0.383438 19.9729C-0.127568 20.4839 -0.127568 21.3125 0.383438 21.8237L7.5243 28.9645C7.89843 29.3388 8.46139 29.4505 8.95041 29.2482C9.4393 29.0456 9.7582 28.5685 9.7582 28.0392V25.3614H13.3894V32.4967C13.3894 33.2193 13.9754 33.8053 14.698 33.8053H20.9463C21.6689 33.8053 22.2549 33.2193 22.2549 32.4967ZM19.6377 31.1881H16.0066V24.0528C16.0066 23.3302 15.4206 22.7442 14.698 22.7442H8.44961C7.727 22.7442 7.14102 23.3302 7.14102 24.0528V24.8799L3.15923 20.8982L7.14102 16.9164V17.8044C7.14102 18.527 7.727 19.113 8.44961 19.113H19.6377V31.1881Z" fill="#220959"/>
<path d="M36.6236 15.4414C36.2795 15.4414 35.9418 15.5813 35.6985 15.8248C35.4551 16.0684 35.3163 16.4058 35.3163 16.75C35.3163 17.0942 35.4551 17.4318 35.6985 17.675C35.9418 17.9184 36.2795 18.0586 36.6236 18.0586C36.9691 18.0586 37.3054 17.9186 37.5487 17.675C37.7934 17.4318 37.9322 17.0942 37.9322 16.75C37.9322 16.4058 37.7934 16.0682 37.5487 15.8248C37.3054 15.5813 36.9691 15.4414 36.6236 15.4414Z" fill="#220959"/>
<path d="M26.3434 9.77387H29.0673V23.9474C29.0673 24.67 29.6533 25.256 30.3759 25.256H36.6241C37.3467 25.256 37.9327 24.67 37.9327 23.9474V21.9845C37.9327 21.2619 37.3467 20.6759 36.6241 20.6759C35.9015 20.6759 35.3155 21.2619 35.3155 21.9845V22.6388H31.6845V8.46528C31.6845 7.74267 31.0985 7.15668 30.3759 7.15668H29.5026L33.5 3.15932L37.4974 7.15668H36.6241C35.9015 7.15668 35.3155 7.74267 35.3155 8.46528V11.5157C35.3155 12.2383 35.9015 12.8243 36.6241 12.8243C37.3467 12.8243 37.9327 12.2383 37.9327 11.5157V9.77387H40.6566C41.1859 9.77387 41.663 9.45496 41.8656 8.96607C42.068 8.47705 41.956 7.91423 41.5819 7.53997L34.4254 0.3834C33.9143 -0.127475 33.086 -0.127475 32.5747 0.3834L25.4181 7.53997C25.044 7.91423 24.932 8.47705 25.1344 8.96607C25.3369 9.4551 25.8141 9.77387 26.3434 9.77387Z" fill="#220959"/>
</svg>
