<svg width="30" height="30" viewBox="0 0 30 30" fill="none" xmlns="http://www.w3.org/2000/svg">
<path d="M13.0065 21.9371C12.8975 22.046 12.8348 22.1966 12.8348 22.3513C12.8348 22.5054 12.8974 22.6566 13.0065 22.7656C13.1154 22.8745 13.2666 22.9373 13.4207 22.9373C13.5754 22.9373 13.726 22.8746 13.8349 22.7656C13.9445 22.6566 14.0067 22.5054 14.0067 22.3513C14.0067 22.1966 13.9445 22.046 13.8349 21.9371C13.726 21.8275 13.5748 21.7654 13.4207 21.7654C13.2666 21.7654 13.1154 21.8275 13.0065 21.9371Z" fill="#220959"/>
<path d="M20.4604 23.6C20.3063 23.6 20.1551 23.6627 20.0462 23.7717C19.9372 23.8806 19.8745 24.0318 19.8745 24.1859C19.8745 24.34 19.9372 24.4912 20.0462 24.6002C20.1551 24.7092 20.3063 24.7719 20.4604 24.7719C20.6145 24.7719 20.7657 24.7092 20.8747 24.6002C20.9836 24.4912 21.0464 24.34 21.0464 24.1859C21.0464 24.0318 20.9837 23.8806 20.8747 23.7717C20.7657 23.6627 20.6145 23.6 20.4604 23.6Z" fill="#220959"/>
<path d="M3.40259 7.14822C3.55733 7.14822 3.70792 7.08605 3.81685 6.97712C3.92583 6.86755 3.98853 6.71697 3.98853 6.56287C3.98853 6.40818 3.92589 6.25701 3.81685 6.14802C3.70792 6.03904 3.55728 5.97693 3.40259 5.97693C3.24849 5.97693 3.09731 6.03904 2.98839 6.14802C2.8794 6.25701 2.81665 6.40818 2.81665 6.56287C2.81665 6.71697 2.87935 6.86755 2.98839 6.97712C3.09731 7.08605 3.24849 7.14822 3.40259 7.14822Z" fill="#220959"/>
<path d="M5.7464 7.14831H6.27181C6.59536 7.14831 6.85775 6.88593 6.85775 6.56238C6.85775 6.23882 6.59536 5.97644 6.27181 5.97644H5.7464C5.42284 5.97644 5.16046 6.23882 5.16046 6.56238C5.16046 6.88593 5.42284 7.14831 5.7464 7.14831Z" fill="#220959"/>
<path d="M5.7464 9.65234H6.27181C6.59536 9.65234 6.85775 9.38996 6.85775 9.06641C6.85775 8.74285 6.59536 8.48047 6.27181 8.48047H5.7464C5.42284 8.48047 5.16046 8.74285 5.16046 9.06641C5.16046 9.38996 5.42284 9.65234 5.7464 9.65234Z" fill="#220959"/>
<path d="M5.7464 12.1562H6.27181C6.59536 12.1562 6.85775 11.8939 6.85775 11.5703C6.85775 11.2468 6.59536 10.9844 6.27181 10.9844H5.7464C5.42284 10.9844 5.16046 11.2468 5.16046 11.5703C5.16046 11.8939 5.42284 12.1562 5.7464 12.1562Z" fill="#220959"/>
<path d="M29.405 12.6373L25.1606 8.39292C25.5112 7.63815 25.7074 6.79771 25.7074 5.91216C25.7074 2.65412 23.0568 0.00354004 19.7988 0.00354004C17.5341 0.00354004 15.5632 1.28456 14.5718 3.1598H2.25523C1.01171 3.1598 0 4.17151 0 5.41497V22.5168C0 23.7603 1.01171 24.772 2.25523 24.772H10.9599V26.6015H9.83318C8.66888 26.6015 7.72168 27.5487 7.72168 28.713V29.4106C7.72168 29.7342 7.98407 29.9966 8.30764 29.9966H18.5343C18.8579 29.9966 19.1203 29.7342 19.1203 29.4106V28.713C19.1203 27.5487 18.173 26.6015 17.0087 26.6015H15.882V24.772H18.1169C18.4405 24.772 18.7029 24.5096 18.7029 24.186C18.7029 23.8625 18.4405 23.6001 18.1169 23.6001H15.2961H11.5459H2.25523C1.65791 23.6001 1.17191 23.1142 1.17191 22.5168V21.2771H25.6649V22.5168C25.6649 23.1142 25.179 23.6001 24.5817 23.6001H22.8045C22.4809 23.6001 22.2185 23.8625 22.2185 24.186C22.2185 24.5096 22.4809 24.772 22.8045 24.772H24.5817C25.8252 24.772 26.8368 23.7603 26.8368 22.5168V15.7699C27.1684 15.992 27.558 16.1113 27.966 16.1113C28.5096 16.1113 29.0206 15.8996 29.405 15.5152C30.1983 14.7218 30.1983 13.4307 29.405 12.6373ZM17.9484 28.713V28.8247H8.8936V28.713C8.8936 28.1949 9.31507 27.7735 9.83318 27.7735H11.5459H15.296H17.0087C17.5269 27.7735 17.9484 28.1949 17.9484 28.713ZM14.71 24.7721V26.6015H12.1318V24.7721H14.71ZM19.7988 1.17545C22.4106 1.17545 24.5355 3.30037 24.5355 5.91216C24.5355 8.52394 22.4106 10.6489 19.7988 10.6489C17.1871 10.6489 15.0622 8.52394 15.0622 5.91216C15.0622 3.30037 17.187 1.17545 19.7988 1.17545ZM17.708 11.4383C18.3583 11.6851 19.063 11.8207 19.7988 11.8207C19.8242 11.8207 19.8494 11.8201 19.8747 11.8198V17.2268H17.708V11.4383ZM1.17191 20.1052V5.41497C1.17191 4.81765 1.65791 4.33171 2.25523 4.33171H14.1052C13.9653 4.83499 13.8903 5.36493 13.8903 5.91216C13.8903 6.82941 14.1004 7.69856 14.475 8.4739L13.4034 9.54556L11.6203 7.76249C11.3915 7.53373 11.0206 7.53373 10.7916 7.76249L8.55386 10.0003C8.32504 10.2291 8.32504 10.6001 8.55386 10.829C8.6683 10.9434 8.81824 11.0006 8.96819 11.0006C9.11813 11.0006 9.26808 10.9434 9.38252 10.829L11.206 9.00554L12.989 10.7885C13.2178 11.0173 13.5887 11.0174 13.8177 10.7885L15.1071 9.49921C15.5059 10.0196 15.9891 10.472 16.5361 10.8357V17.2268H15.6215V12.2185C15.6215 11.8949 15.3591 11.6325 15.0355 11.6325H11.697C11.3734 11.6325 11.111 11.8949 11.111 12.2185V17.2268H10.1964V14.0743C10.1964 13.7507 9.93396 13.4883 9.6104 13.4883H6.27185C5.94828 13.4883 5.68589 13.7507 5.68589 14.0743V17.2268H3.98878V8.90639C3.98878 8.58283 3.72639 8.32044 3.40283 8.32044C3.07926 8.32044 2.81687 8.58283 2.81687 8.90639V17.8127C2.81687 18.1363 3.07926 18.3987 3.40283 18.3987H23.434C23.7576 18.3987 24.02 18.1363 24.02 17.8127C24.02 17.4891 23.7576 17.2268 23.434 17.2268H21.0466V11.6877C21.4783 11.5945 21.8926 11.4541 22.2838 11.272L25.6649 14.6531V20.1052H1.17191ZM14.4496 17.2268H12.2829V12.8044H14.4496V17.2268ZM9.02444 17.2268H6.85781V14.6603H9.02444V17.2268ZM28.5763 14.6866C28.4133 14.8496 28.1966 14.9394 27.966 14.9394C27.7355 14.9394 27.5188 14.8495 27.3558 14.6865L23.3219 10.6527C23.7855 10.3072 24.1969 9.89549 24.542 9.43165L28.5764 13.4661C28.9128 13.8025 28.9128 14.3501 28.5763 14.6866Z" fill="#220959"/>
<path d="M19.7988 7.64238C19.4249 7.64238 19.1208 7.39065 19.1208 7.08121C19.1208 6.75764 18.8584 6.49525 18.5349 6.49525C18.2113 6.49525 17.9489 6.75764 17.9489 7.08121C17.9489 7.84529 18.4797 8.49506 19.2139 8.72499C19.2243 9.03947 19.4818 9.2915 19.7988 9.2915C20.1158 9.2915 20.3734 9.03953 20.3838 8.72499C21.118 8.49506 21.6488 7.84535 21.6488 7.08121C21.6488 6.12557 20.8189 5.34812 19.7988 5.34812C19.4249 5.34812 19.1208 5.09639 19.1208 4.78695C19.1208 4.47751 19.4249 4.22578 19.7988 4.22578C20.1727 4.22578 20.4769 4.47751 20.4769 4.78695C20.4769 5.11052 20.7393 5.37291 21.0629 5.37291C21.3864 5.37291 21.6488 5.11052 21.6488 4.78695C21.6488 4.02316 21.1185 3.37368 20.3848 3.14346V3.11867C20.3848 2.79511 20.1224 2.53271 19.7988 2.53271C19.4753 2.53271 19.2129 2.79511 19.2129 3.11867V3.14346C18.4793 3.37368 17.9489 4.02316 17.9489 4.78695C17.9489 5.74259 18.7788 6.52004 19.7988 6.52004C20.1727 6.52004 20.4769 6.77176 20.4769 7.08121C20.4769 7.39065 20.1727 7.64238 19.7988 7.64238Z" fill="#220959"/>
</svg>
