<svg width="29" height="29" viewBox="0 0 29 29" fill="none" xmlns="http://www.w3.org/2000/svg">
<path d="M22.3164 12.1211H24.1078C25.1893 12.1211 26.0691 11.2412 26.0691 10.1598V7.02344H27.3008C28.2377 7.02344 29 6.26117 29 5.32422V1.69922C29 0.76227 28.2377 0 27.3008 0H23.6758C22.7388 0 21.9766 0.76227 21.9766 1.69922V5.32422C21.9766 6.26117 22.7388 7.02344 23.6758 7.02344H24.9363V10.1598C24.9363 10.6166 24.5646 10.9883 24.1078 10.9883H22.2475C22.0484 10.3335 21.4391 9.85547 20.72 9.85547H15.0736V7.02344H16.3125C17.2494 7.02344 18.0117 6.26117 18.0117 5.32422V1.69922C18.0117 0.76227 17.2494 0 16.3125 0H12.6875C11.7506 0 10.9883 0.76227 10.9883 1.69922V5.32422C10.9883 6.26117 11.7506 7.02344 12.6875 7.02344H13.9408V9.85547H8.27995C7.5609 9.85547 6.95156 10.3335 6.75247 10.9883H4.90661C4.4498 10.9883 4.07812 10.6166 4.07812 10.1598V7.02344H5.32422C6.26117 7.02344 7.02344 6.26117 7.02344 5.32422V1.69922C7.02344 0.76227 6.26117 0 5.32422 0H1.69922C0.76227 0 0 0.76227 0 1.69922V5.32422C0 6.26117 0.76227 7.02344 1.69922 7.02344H2.94531V10.1598C2.94531 11.2412 3.82511 12.1211 4.90661 12.1211H6.68359V16.8789H4.90661C3.82511 16.8789 2.94531 17.7588 2.94531 18.8402V21.9766H1.69922C0.76227 21.9766 0 22.7388 0 23.6758V27.3008C0 28.2377 0.76227 29 1.69922 29H5.32422C6.26117 29 7.02344 28.2377 7.02344 27.3008V23.6758C7.02344 22.7388 6.26117 21.9766 5.32422 21.9766H4.07812V18.8402C4.07812 18.3834 4.4498 18.0117 4.90661 18.0117H6.75247C6.95156 18.6665 7.5609 19.1445 8.27995 19.1445H13.9408V21.9766H12.6875C11.7506 21.9766 10.9883 22.7388 10.9883 23.6758V27.3008C10.9883 28.2377 11.7506 29 12.6875 29H16.3125C17.2494 29 18.0117 28.2377 18.0117 27.3008V23.6758C18.0117 22.7388 17.2494 21.9766 16.3125 21.9766H15.0736V19.1445H20.72C21.4391 19.1445 22.0484 18.6665 22.2475 18.0117H24.1078C24.5646 18.0117 24.9363 18.3834 24.9363 18.8402V21.9766H23.6758C22.7388 21.9766 21.9766 22.7388 21.9766 23.6758V27.3008C21.9766 28.2377 22.7388 29 23.6758 29H27.3008C28.2377 29 29 28.2377 29 27.3008V23.6758C29 22.7388 28.2377 21.9766 27.3008 21.9766H26.0691V18.8402C26.0691 17.7588 25.1893 16.8789 24.1078 16.8789H22.3164V12.1211ZM23.1094 5.32422V1.69922C23.1094 1.3869 23.3635 1.13281 23.6758 1.13281H27.3008C27.6131 1.13281 27.8672 1.3869 27.8672 1.69922V5.32422C27.8672 5.63654 27.6131 5.89062 27.3008 5.89062H23.6758C23.3635 5.89062 23.1094 5.63654 23.1094 5.32422ZM12.1211 5.32422V1.69922C12.1211 1.3869 12.3752 1.13281 12.6875 1.13281H16.3125C16.6248 1.13281 16.8789 1.3869 16.8789 1.69922V5.32422C16.8789 5.63654 16.6248 5.89062 16.3125 5.89062H12.6875C12.3752 5.89062 12.1211 5.63654 12.1211 5.32422ZM1.13281 5.32422V1.69922C1.13281 1.3869 1.3869 1.13281 1.69922 1.13281H5.32422C5.63654 1.13281 5.89062 1.3869 5.89062 1.69922V5.32422C5.89062 5.63654 5.63654 5.89062 5.32422 5.89062H1.69922C1.3869 5.89062 1.13281 5.63654 1.13281 5.32422ZM5.89062 23.6758V27.3008C5.89062 27.6131 5.63654 27.8672 5.32422 27.8672H1.69922C1.3869 27.8672 1.13281 27.6131 1.13281 27.3008V23.6758C1.13281 23.3635 1.3869 23.1094 1.69922 23.1094H5.32422C5.63654 23.1094 5.89062 23.3635 5.89062 23.6758ZM16.8789 23.6758V27.3008C16.8789 27.6131 16.6248 27.8672 16.3125 27.8672H12.6875C12.3752 27.8672 12.1211 27.6131 12.1211 27.3008V23.6758C12.1211 23.3635 12.3752 23.1094 12.6875 23.1094H16.3125C16.6248 23.1094 16.8789 23.3635 16.8789 23.6758ZM27.8672 23.6758V27.3008C27.8672 27.6131 27.6131 27.8672 27.3008 27.8672H23.6758C23.3635 27.8672 23.1094 27.6131 23.1094 27.3008V23.6758C23.1094 23.3635 23.3635 23.1094 23.6758 23.1094H27.3008C27.6131 23.1094 27.8672 23.3635 27.8672 23.6758ZM20.72 18.0117H8.27995C8.02433 18.0117 7.81641 17.8038 7.81641 17.5482V11.4518C7.81641 11.1963 8.02433 10.9883 8.27995 10.9883H20.7201C20.9757 10.9883 21.1837 11.1962 21.1837 11.4518V12.1211H18.1439C17.8312 12.1211 17.5775 12.3747 17.5775 12.6875C17.5775 13.0003 17.8312 13.2539 18.1439 13.2539H21.1836V17.5482C21.1836 17.8038 20.9757 18.0117 20.72 18.0117Z" fill="#220959"/>
<path d="M15.8781 12.1211C15.7291 12.1211 15.583 12.1817 15.4776 12.2871C15.3723 12.3924 15.3117 12.5385 15.3117 12.6875C15.3117 12.8365 15.3722 12.9826 15.4776 13.0879C15.583 13.1933 15.7291 13.2539 15.8781 13.2539C16.027 13.2539 16.1732 13.1933 16.2785 13.0879C16.3844 12.9826 16.4445 12.8365 16.4445 12.6875C16.4445 12.5385 16.3844 12.3924 16.2785 12.2871C16.1732 12.1817 16.027 12.1211 15.8781 12.1211Z" fill="#220959"/>
</svg>
