<svg width="30" height="30" viewBox="0 0 30 30" fill="none" xmlns="http://www.w3.org/2000/svg">
<path d="M29.8284 15.5208C29.5995 15.292 29.2286 15.292 28.9996 15.5208L26.0364 18.484L21.1129 13.5606L28.1858 6.4876C28.4146 6.25878 28.4146 5.88775 28.1858 5.65887C27.9569 5.43011 27.586 5.43011 27.3571 5.65887L20.2842 12.7318L20.0698 12.5174C19.8409 12.2886 19.47 12.2886 19.241 12.5174L17.1461 14.6123C17.0338 14.7246 16.9769 14.8712 16.9749 15.0184C16.04 15.2077 15.1317 15.5133 14.2736 15.9242H12.8762C12.7287 15.9242 12.5827 15.8983 12.4449 15.8499L12.8538 15.441C13.0826 15.2122 13.0826 14.8412 12.8538 14.6123L10.7589 12.5174C10.53 12.2886 10.1591 12.2886 9.93016 12.5174L9.7157 12.7318L1.00338 4.01947C0.774507 3.79071 0.403593 3.79071 0.174658 4.01947C-0.05416 4.24829 -0.05416 4.61932 0.174658 4.8482L8.88703 13.5606L3.96355 18.484L1.00028 15.5208C0.771401 15.292 0.400488 15.292 0.171553 15.5208C-0.0572655 15.7496 -0.0572655 16.1206 0.171553 16.3495L3.13488 19.3127L2.97075 19.4768C2.74193 19.7057 2.74193 20.0767 2.97075 20.3056L5.06568 22.4005C5.18012 22.5149 5.33007 22.5721 5.48001 22.5721C5.62996 22.5721 5.77991 22.5149 5.89435 22.4005L6.24628 22.0486L7.89974 23.702C7.64848 24.3471 7.8238 25.1086 8.3865 25.5721C8.68423 25.8173 9.04999 25.948 9.43069 25.948C9.43801 25.948 9.44539 25.9476 9.45272 25.9475C9.52022 26.3165 9.71283 26.6647 10.0244 26.9214C10.3306 27.1736 10.7014 27.2964 11.0701 27.2964C11.0769 27.2964 11.0837 27.2959 11.0905 27.2959C11.1578 27.6652 11.3505 28.0137 11.6623 28.2705C11.96 28.5158 12.3257 28.6465 12.7064 28.6465C12.7135 28.6465 12.7206 28.6461 12.7277 28.646C12.7972 29.0281 12.997 29.37 13.3001 29.6198C13.5979 29.865 13.9636 29.9957 14.3443 29.9957C14.3979 29.9957 14.4517 29.9931 14.5058 29.9879C14.9436 29.9456 15.3389 29.7353 15.6186 29.3957L15.9489 28.9947C16.1348 29.0627 16.3328 29.0984 16.5364 29.0984C16.5447 29.0984 16.5531 29.0984 16.5614 29.0983C17.0183 29.0918 17.4453 28.9077 17.7638 28.58C17.9362 28.4027 18.0651 28.1945 18.1465 27.9686C18.3292 28.0339 18.5235 28.0681 18.723 28.0681C18.7313 28.0681 18.7397 28.0681 18.7481 28.068C19.205 28.0615 19.632 27.8774 19.9504 27.5497C20.2327 27.2592 20.3995 26.8867 20.4292 26.4876C20.8639 26.4668 21.2681 26.2852 21.5729 25.9717C21.8913 25.644 22.0631 25.2119 22.0566 24.755C22.0514 24.3908 21.9331 24.0458 21.7189 23.759L23.5916 21.8864L24.1056 22.4004C24.2201 22.5148 24.37 22.5721 24.52 22.5721C24.6699 22.5721 24.8199 22.5148 24.9343 22.4004L27.0292 20.3055C27.258 20.0767 27.258 19.7057 27.0292 19.4768L26.8651 19.3127L29.8284 16.3494C30.0572 16.1206 30.0572 15.7496 29.8284 15.5208ZM5.48001 21.1574L4.21381 19.8912L10.3446 13.7604L11.6108 15.0266L5.48001 21.1574ZM8.96086 24.3466C8.94867 24.2203 8.98641 24.0967 9.0671 23.9988L9.46274 23.5185C9.54342 23.4205 9.65739 23.3599 9.78373 23.3477C9.79931 23.3462 9.81478 23.3455 9.83025 23.3455C9.94012 23.3455 10.0457 23.3832 10.1315 23.4539C10.2295 23.5346 10.2901 23.6485 10.3023 23.7749C10.3145 23.9012 10.2768 24.0247 10.1961 24.1227L9.80043 24.6029C9.63384 24.805 9.33388 24.8342 9.13173 24.6676C9.0337 24.5868 8.97305 24.4729 8.96086 24.3466ZM10.705 25.348L11.1006 24.8677C11.1944 24.7539 11.3305 24.6949 11.4677 24.6949C11.574 24.6949 11.6811 24.7303 11.7693 24.8032C11.8673 24.8839 11.9279 24.9978 11.9401 25.1242C11.9523 25.2505 11.9146 25.374 11.8339 25.472L11.4382 25.9522C11.2718 26.1543 10.9717 26.1835 10.7695 26.0169C10.5673 25.8502 10.5384 25.5502 10.705 25.348ZM12.2366 27.0451C12.2244 26.9187 12.2622 26.7952 12.3429 26.6972L12.7385 26.217C12.8192 26.119 12.9332 26.0584 13.0595 26.0462C13.0751 26.0447 13.0905 26.0439 13.106 26.0439C13.2159 26.0439 13.3214 26.0817 13.4073 26.1524C13.5052 26.2331 13.5659 26.347 13.5781 26.4733C13.5903 26.5997 13.5525 26.7232 13.4718 26.8212L13.0762 27.3014C12.9097 27.5035 12.6096 27.5327 12.4075 27.3661C12.3095 27.2852 12.2488 27.1713 12.2366 27.0451ZM14.7141 28.6506C14.6334 28.7486 14.5194 28.8092 14.3931 28.8214C14.2669 28.8334 14.1432 28.7959 14.0453 28.7152C13.9473 28.6345 13.8867 28.5205 13.8745 28.3942C13.8623 28.2678 13.9001 28.1443 13.9807 28.0464L14.3764 27.5661C14.4571 27.4681 14.571 27.4075 14.6974 27.3953C14.713 27.3938 14.7284 27.3931 14.744 27.3931C14.8538 27.3931 14.9593 27.4308 15.0451 27.5015C15.1431 27.5822 15.2038 27.6962 15.2159 27.8225C15.2281 27.9488 15.1904 28.0724 15.1097 28.1703L14.7141 28.6506ZM20.7325 25.1549C20.5255 25.368 20.1837 25.3728 19.9707 25.1659C19.9407 25.1367 19.9083 25.1116 19.8742 25.0901L16.6271 21.913C16.3958 21.6866 16.0247 21.6908 15.7984 21.9221C15.5722 22.1533 15.5761 22.5243 15.8075 22.7507L19.0992 25.9713C19.2024 26.0715 19.2603 26.206 19.2624 26.3499C19.2644 26.4937 19.2103 26.6298 19.11 26.733C19.0097 26.8362 18.8752 26.8942 18.7314 26.8962C18.5877 26.8958 18.4515 26.8441 18.3473 26.743L16.1423 24.6092C16.1217 24.5892 16.0996 24.5717 16.0769 24.5553L15.204 23.7071C14.972 23.4815 14.6009 23.4868 14.3754 23.7189C14.1498 23.951 14.1552 24.3219 14.3872 24.5475L16.9125 27.0016C17.0157 27.1018 17.0736 27.2363 17.0757 27.3802C17.0777 27.5241 17.0236 27.6601 16.9233 27.7633C16.823 27.8666 16.6885 27.9245 16.5447 27.9265C16.4908 27.9275 16.4383 27.9204 16.3883 27.9062C16.3991 27.4185 16.195 26.9306 15.7901 26.5971C15.4783 26.3403 15.0995 26.2179 14.724 26.2225C14.6566 25.8532 14.464 25.5047 14.1522 25.2479C13.8488 24.9979 13.4748 24.8675 13.086 24.8726C13.0185 24.5035 12.826 24.1553 12.5144 23.8986C12.2109 23.6487 11.8369 23.5183 11.4482 23.5233C11.3806 23.1542 11.188 22.8061 10.8765 22.5494C10.5369 22.2697 10.1088 22.1392 9.67087 22.1813C9.24962 22.222 8.86816 22.4185 8.59071 22.7357L7.07488 21.2199L11.5715 16.7233C11.8253 16.88 12.1062 16.9907 12.3991 17.0488C11.9598 17.3725 11.5427 17.7276 11.1527 18.1122L10.8232 18.4372C10.0854 19.1649 10.0711 20.3632 10.7914 21.1083C11.1573 21.4868 11.6498 21.6884 12.1537 21.6884C12.3908 21.6884 12.6304 21.6437 12.8604 21.5519L15.4173 20.5309H16.7276L20.7215 24.3932C20.8247 24.4934 20.8827 24.6279 20.8847 24.7718C20.8868 24.9157 20.8327 25.0517 20.7325 25.1549ZM20.8924 22.9282L18.4134 20.5309H18.5014C18.8249 20.5309 19.0873 20.2685 19.0873 19.945C19.0873 19.6214 18.8249 19.359 18.5014 19.359H15.3047C15.2302 19.359 15.1566 19.3732 15.0874 19.4008L12.4259 20.4635C12.1508 20.5735 11.84 20.5068 11.6341 20.2938C11.3584 20.0087 11.3639 19.5501 11.6463 19.2716L11.9758 18.9467C13.5436 17.4003 15.5957 16.3831 17.7734 16.0685L22.7627 21.0578L20.8924 22.9282ZM24.52 21.1574L18.3892 15.0266L19.6554 13.7604L25.7862 19.8912L24.52 21.1574Z" fill="#220959"/>
<path d="M29.4111 5.01978C29.5652 5.01978 29.7158 4.95708 29.8253 4.8481C29.9343 4.73911 29.997 4.58794 29.997 4.43384C29.997 4.27974 29.9344 4.12856 29.8253 4.01958C29.7163 3.91065 29.5652 3.8479 29.4111 3.8479C29.257 3.8479 29.1058 3.9106 28.9962 4.01958C28.8873 4.12856 28.8251 4.27974 28.8251 4.43384C28.8251 4.58794 28.8873 4.73911 28.9962 4.8481C29.1058 4.95702 29.257 5.01978 29.4111 5.01978Z" fill="#220959"/>
<path d="M15 7.74101C14.6172 7.74101 14.3058 7.48272 14.3058 7.16519C14.3058 6.84162 14.0434 6.57923 13.7198 6.57923C13.3962 6.57923 13.1339 6.84162 13.1339 7.16519C13.1339 7.93743 13.6716 8.59388 14.4148 8.8244C14.4223 9.1414 14.6812 9.39624 15 9.39624C15.3188 9.39624 15.5777 9.1414 15.5853 8.8244C16.3284 8.59388 16.8662 7.93743 16.8662 7.16519C16.8662 6.20146 16.029 5.41738 15 5.41738C14.6172 5.41738 14.3058 5.15903 14.3058 4.8415C14.3058 4.52397 14.6172 4.26562 15 4.26562C15.3829 4.26562 15.6943 4.52397 15.6943 4.8415C15.6943 5.16507 15.9567 5.42746 16.2802 5.42746C16.6038 5.42746 16.8662 5.16507 16.8662 4.8415C16.8662 4.06944 16.3287 3.41316 15.586 3.18247V3.15188C15.586 2.82831 15.3236 2.56592 15 2.56592C14.6765 2.56592 14.4141 2.82831 14.4141 3.15188V3.18247C13.6714 3.41316 13.1339 4.06949 13.1339 4.8415C13.1339 5.80523 13.971 6.5893 15 6.5893C15.3828 6.5893 15.6943 6.84765 15.6943 7.16519C15.6943 7.48272 15.3828 7.74101 15 7.74101Z" fill="#220959"/>
<path d="M15 11.9579C18.2957 11.9579 20.9768 9.2767 20.9768 5.98108C20.9768 2.68546 18.2957 0.00427246 15 0.00427246C11.7044 0.00427246 9.02322 2.68546 9.02322 5.98108C9.02322 9.2767 11.7043 11.9579 15 11.9579ZM15 1.1762C17.6495 1.1762 19.8049 3.33165 19.8049 5.98108C19.8049 8.6305 17.6495 10.786 15 10.786C12.3506 10.786 10.1951 8.6305 10.1951 5.98108C10.1951 3.33165 12.3506 1.1762 15 1.1762Z" fill="#220959"/>
</svg>
