<svg width="24" height="30" viewBox="0 0 24 30" fill="none" xmlns="http://www.w3.org/2000/svg">
<path d="M21.375 1.17188H17.232C17.0729 0.500859 16.469 0 15.75 0H8.25C7.531 0 6.92713 0.500859 6.76799 1.17188H2.625C1.26803 1.17188 0.164062 2.27584 0.164062 3.63281V27.5391C0.164062 28.896 1.26803 30 2.625 30H21.375C22.732 30 23.8359 28.896 23.8359 27.5391V14.6484C23.8359 14.3248 23.5736 14.0625 23.25 14.0625C22.9264 14.0625 22.6641 14.3248 22.6641 14.6484V27.5391C22.6641 28.2499 22.0858 28.8281 21.375 28.8281H2.625C1.9142 28.8281 1.33594 28.2499 1.33594 27.5391V3.63281C1.33594 2.92201 1.9142 2.34375 2.625 2.34375H6.72656V3.51562H3.10119C2.77764 3.51562 2.51525 3.77795 2.51525 4.10156V27.0703C2.51525 27.3939 2.77764 27.6562 3.10119 27.6562H20.9137C21.2372 27.6562 21.4996 27.3939 21.4996 27.0703V4.10156C21.4996 3.77795 21.2372 3.51562 20.9137 3.51562H17.2734V2.34375H21.375C22.0858 2.34375 22.6641 2.92201 22.6641 3.63281V9.96094C22.6641 10.2846 22.9264 10.5469 23.25 10.5469C23.5736 10.5469 23.8359 10.2846 23.8359 9.96094V3.63281C23.8359 2.27584 22.732 1.17188 21.375 1.17188ZM7.89844 1.52344C7.89844 1.32955 8.05611 1.17188 8.25 1.17188H15.75C15.9439 1.17188 16.1016 1.32955 16.1016 1.52344V4.33594C16.1016 4.52982 15.9439 4.6875 15.75 4.6875H8.25C8.05611 4.6875 7.89844 4.52982 7.89844 4.33594V1.52344ZM20.3278 26.4844H3.68713V4.6875H6.76799C6.92719 5.35852 7.531 5.85938 8.25 5.85938H15.75C16.469 5.85938 17.0729 5.35852 17.232 4.6875H20.3277V26.4844H20.3278Z" fill="#220959"/>
<path d="M23.25 11.7188C23.0959 11.7188 22.9447 11.7814 22.8357 11.8904C22.7268 11.9994 22.6641 12.1506 22.6641 12.3047C22.6641 12.4588 22.7267 12.61 22.8357 12.7189C22.9448 12.8279 23.0959 12.8906 23.25 12.8906C23.4041 12.8906 23.5553 12.8279 23.6642 12.7189C23.7732 12.61 23.8359 12.4588 23.8359 12.3047C23.8359 12.1506 23.7732 11.9994 23.6642 11.8904C23.5553 11.7814 23.4041 11.7188 23.25 11.7188Z" fill="#220959"/>
<path d="M7.78867 22.9688H6.03085V21.2109C6.03085 20.8873 5.76847 20.625 5.44492 20.625C5.12136 20.625 4.85898 20.8873 4.85898 21.2109V23.5547C4.85898 23.8783 5.12136 24.1406 5.44492 24.1406H7.78867C8.11222 24.1406 8.3746 23.8783 8.3746 23.5547C8.3746 23.2311 8.11222 22.9688 7.78867 22.9688Z" fill="#220959"/>
<path d="M11.0039 22.9688C10.8498 22.9688 10.6986 23.0314 10.5896 23.1404C10.4807 23.2494 10.418 23.4006 10.418 23.5547C10.418 23.7088 10.4806 23.86 10.5896 23.9689C10.6987 24.0779 10.8498 24.1406 11.0039 24.1406C11.158 24.1406 11.3092 24.0779 11.4181 23.9689C11.5271 23.86 11.5898 23.7088 11.5898 23.5547C11.5898 23.4006 11.5271 23.2494 11.4181 23.1404C11.3092 23.0314 11.158 22.9688 11.0039 22.9688Z" fill="#220959"/>
<path d="M12.7617 23.5547C12.7617 23.8783 13.0241 24.1406 13.3477 24.1406H18.5699C18.8935 24.1406 19.1559 23.8783 19.1559 23.5547C19.1559 23.2311 18.8935 22.9688 18.5699 22.9688H13.3477C13.0241 22.9688 12.7617 23.2311 12.7617 23.5547Z" fill="#220959"/>
<path d="M11.0039 20.625C10.6804 20.625 10.418 20.8873 10.418 21.2109C10.418 21.5346 10.6804 21.7969 11.0039 21.7969H14.5195C14.8431 21.7969 15.1055 21.5346 15.1055 21.2109C15.1055 20.8873 14.8431 20.625 14.5195 20.625H11.0039Z" fill="#220959"/>
<path d="M12 18.5156C15.1662 18.5156 17.7422 15.9397 17.7422 12.7734C17.7422 9.60715 15.1662 7.03125 12 7.03125C8.83377 7.03125 6.25781 9.60715 6.25781 12.7734C6.25781 15.9397 8.83377 18.5156 12 18.5156ZM12 8.20312C14.5201 8.20312 16.5703 10.2534 16.5703 12.7734C16.5703 15.2935 14.5201 17.3438 12 17.3438C9.47988 17.3438 7.42969 15.2935 7.42969 12.7734C7.42969 10.2534 9.47988 8.20312 12 8.20312Z" fill="#220959"/>
<path d="M10.88 14.4824C10.9944 14.5968 11.1444 14.654 11.2943 14.654C11.4442 14.654 11.5942 14.5968 11.7086 14.4824L14.1848 12.0062C14.4136 11.7774 14.4136 11.4064 14.1848 11.1776C13.9559 10.9488 13.585 10.9488 13.3561 11.1776L11.2943 13.2394L10.4474 12.3925C10.2185 12.1637 9.84761 12.1637 9.61869 12.3925C9.38988 12.6213 9.38988 12.9924 9.61869 13.2212L10.88 14.4824Z" fill="#220959"/>
<path d="M9.88599 3.51562H14.1289C14.4524 3.51562 14.7148 3.2533 14.7148 2.92969C14.7148 2.60607 14.4524 2.34375 14.1289 2.34375H9.88599C9.56243 2.34375 9.30005 2.60607 9.30005 2.92969C9.30005 3.2533 9.56237 3.51562 9.88599 3.51562Z" fill="#220959"/>
</svg>
