<svg width="30" height="30" viewBox="0 0 30 30" fill="none" xmlns="http://www.w3.org/2000/svg">
<path d="M15 28.8281C14.8459 28.8281 14.6947 28.8908 14.5857 28.9998C14.4768 29.1088 14.4141 29.26 14.4141 29.4141C14.4141 29.5682 14.4768 29.7193 14.5857 29.8283C14.6947 29.9373 14.8459 30 15 30C15.1541 30 15.3053 29.9373 15.4143 29.8283C15.5232 29.7193 15.5859 29.5682 15.5859 29.4141C15.5859 29.26 15.5232 29.1088 15.4143 28.9998C15.3053 28.8908 15.1541 28.8281 15 28.8281Z" fill="#220959"/>
<path d="M22.9688 8.90625H20.224V7.47398C20.224 5.76182 18.895 4.35522 17.2146 4.229C17.5173 3.7933 17.6953 3.26484 17.6953 2.69531C17.6953 1.20914 16.4862 0 15 0C13.5138 0 12.3047 1.20914 12.3047 2.69531C12.3047 3.26484 12.4827 3.7933 12.7854 4.229C11.105 4.35522 9.77596 5.76182 9.77596 7.47398V8.90625H7.03125C6.70764 8.90625 6.44531 9.16857 6.44531 9.49219V29.4141C6.44531 29.7377 6.70764 30 7.03125 30H12.6562C12.9799 30 13.2422 29.7377 13.2422 29.4141C13.2422 29.0904 12.9799 28.8281 12.6562 28.8281H7.61719V26.3672H10.7812C11.1049 26.3672 11.3672 26.1049 11.3672 25.7812V22.5C11.3672 22.1764 11.1049 21.9141 10.7812 21.9141H7.61719V17.9195H10.7812C11.1049 17.9195 11.3672 17.6572 11.3672 17.3336V14.0524C11.3672 13.7288 11.1049 13.4664 10.7812 13.4664H7.61719V10.0781H12.7809V13.2422C12.7809 13.5658 13.0432 13.8281 13.3668 13.8281H16.6481C16.9717 13.8281 17.234 13.5658 17.234 13.2422V10.0781H22.3828V13.4664H19.2188C18.8951 13.4664 18.6328 13.7288 18.6328 14.0524V17.3336C18.6328 17.6572 18.8951 17.9195 19.2188 17.9195H22.3828V21.9141H19.2188C18.8951 21.9141 18.6328 22.1764 18.6328 22.5V25.7812C18.6328 26.1049 18.8951 26.3672 19.2188 26.3672H22.3828V28.8281H17.3438C17.0201 28.8281 16.7578 29.0904 16.7578 29.4141C16.7578 29.7377 17.0201 30 17.3438 30H22.9688C23.2924 30 23.5547 29.7377 23.5547 29.4141V9.49219C23.5547 9.16857 23.2924 8.90625 22.9688 8.90625ZM10.1953 23.0859V25.1953H7.61719V23.0859H10.1953ZM10.1953 14.6383V16.7477H7.61719V14.6383H10.1953ZM15 1.17188C15.84 1.17188 16.5234 1.85531 16.5234 2.69531C16.5234 3.53531 15.84 4.21875 15 4.21875C14.16 4.21875 13.4766 3.53531 13.4766 2.69531C13.4766 1.85531 14.16 1.17188 15 1.17188ZM16.0621 12.6562H13.9528V10.0781H16.0621V12.6562ZM16.6481 8.90625H13.3668H10.9478V7.47398C10.9478 6.32525 11.8824 5.39062 13.0312 5.39062H14.4141V7.14844C14.4141 7.47205 14.6764 7.73438 15 7.73438C15.3236 7.73438 15.5859 7.47205 15.5859 7.14844V5.39062H16.9689C18.1176 5.39062 19.0522 6.3252 19.0522 7.47398V8.90625H16.6481ZM19.8047 16.7477V14.6383H22.3828V16.7477H19.8047ZM19.8047 25.1953V23.0859H22.3828V25.1953H19.8047Z" fill="#220959"/>
<path d="M27.3047 18.3883C28.7909 18.3883 30 17.1792 30 15.693C30 14.2068 28.7909 12.9977 27.3047 12.9977C25.8185 12.9977 24.6094 14.2068 24.6094 15.693C24.6094 17.1792 25.8185 18.3883 27.3047 18.3883ZM27.3047 14.1696C28.1447 14.1696 28.8281 14.853 28.8281 15.693C28.8281 16.533 28.1447 17.2164 27.3047 17.2164C26.4647 17.2164 25.7812 16.533 25.7812 15.693C25.7812 14.853 26.4647 14.1696 27.3047 14.1696Z" fill="#220959"/>
<path d="M27.3047 21.4453C25.8185 21.4453 24.6094 22.6545 24.6094 24.1406C24.6094 25.6268 25.8185 26.8359 27.3047 26.8359C28.7909 26.8359 30 25.6268 30 24.1406C30 22.6545 28.7909 21.4453 27.3047 21.4453ZM27.3047 25.6641C26.4647 25.6641 25.7812 24.9806 25.7812 24.1406C25.7812 23.3006 26.4647 22.6172 27.3047 22.6172C28.1447 22.6172 28.8281 23.3006 28.8281 24.1406C28.8281 24.9806 28.1447 25.6641 27.3047 25.6641Z" fill="#220959"/>
<path d="M2.69531 12.9977C1.20914 12.9977 0 14.2068 0 15.693C0 17.1792 1.20914 18.3883 2.69531 18.3883C4.18148 18.3883 5.39062 17.1792 5.39062 15.693C5.39062 14.2068 4.18148 12.9977 2.69531 12.9977ZM2.69531 17.2164C1.85531 17.2164 1.17188 16.533 1.17188 15.693C1.17188 14.853 1.85531 14.1696 2.69531 14.1696C3.53531 14.1696 4.21875 14.853 4.21875 15.693C4.21875 16.533 3.53531 17.2164 2.69531 17.2164Z" fill="#220959"/>
<path d="M2.69531 21.4453C1.20914 21.4453 0 22.6545 0 24.1406C0 25.6268 1.20914 26.8359 2.69531 26.8359C4.18148 26.8359 5.39062 25.6268 5.39062 24.1406C5.39062 22.6545 4.18148 21.4453 2.69531 21.4453ZM2.69531 25.6641C1.85531 25.6641 1.17188 24.9806 1.17188 24.1406C1.17188 23.3006 1.85531 22.6172 2.69531 22.6172C3.53531 22.6172 4.21875 23.3006 4.21875 24.1406C4.21875 24.9806 3.53531 25.6641 2.69531 25.6641Z" fill="#220959"/>
</svg>
