<svg width="22" height="30" viewBox="0 0 22 30" fill="none" xmlns="http://www.w3.org/2000/svg">
<path d="M3.26562 12.6562H18.7344C19.0579 12.6562 19.3203 12.3939 19.3203 12.0703V2.92969C19.3203 2.60613 19.0579 2.34375 18.7344 2.34375H3.26562C2.94207 2.34375 2.67969 2.60613 2.67969 2.92969V12.0703C2.67969 12.3939 2.94207 12.6562 3.26562 12.6562ZM3.85156 3.51562H18.1484V11.4844H3.85156V3.51562Z" fill="#220959"/>
<path d="M21.0781 13.8281C20.7546 13.8281 20.4922 14.0905 20.4922 14.4141V28.067C20.4922 28.4867 20.1508 28.8281 19.7311 28.8281H2.26889C1.84924 28.8281 1.50781 28.4867 1.50781 28.067V25.1953C1.50781 24.8718 1.24543 24.6094 0.921875 24.6094C0.59832 24.6094 0.335938 24.8718 0.335938 25.1953V28.067C0.335938 29.1329 1.20307 30 2.26889 30H19.7311C20.7969 30 21.664 29.1329 21.664 28.067V14.4141C21.6641 14.0905 21.4017 13.8281 21.0781 13.8281Z" fill="#220959"/>
<path d="M0.921875 23.4375C1.07598 23.4375 1.22715 23.3748 1.33607 23.2658C1.44512 23.1568 1.50781 23.0057 1.50781 22.8516C1.50781 22.6975 1.44512 22.5463 1.33607 22.4373C1.22715 22.3283 1.07656 22.2656 0.921875 22.2656C0.767129 22.2656 0.616602 22.3283 0.507617 22.4373C0.398633 22.5463 0.335938 22.6975 0.335938 22.8516C0.335938 23.0057 0.398574 23.1568 0.507617 23.2658C0.616602 23.3748 0.767773 23.4375 0.921875 23.4375Z" fill="#220959"/>
<path d="M19.7311 0H2.26889C1.20307 0 0.335938 0.867129 0.335938 1.93295V20.5078C0.335938 20.8314 0.59832 21.0938 0.921875 21.0938C1.24543 21.0938 1.50781 20.8314 1.50781 20.5078V1.93295C1.50781 1.5133 1.84924 1.17188 2.26889 1.17188H19.7311C20.1508 1.17188 20.4922 1.5133 20.4922 1.93295V9.70195C20.4922 10.0255 20.7546 10.2879 21.0781 10.2879C21.4017 10.2879 21.6641 10.0255 21.6641 9.70195V1.93295C21.6641 0.867129 20.7969 0 19.7311 0Z" fill="#220959"/>
<path d="M21.0781 11.4844C20.924 11.4844 20.7729 11.547 20.6639 11.6561C20.5549 11.7651 20.4922 11.9162 20.4922 12.0703C20.4922 12.2244 20.5548 12.3756 20.6639 12.4845C20.7729 12.5935 20.924 12.6562 21.0781 12.6562C21.2322 12.6562 21.3834 12.5936 21.4923 12.4845C21.6014 12.3756 21.6641 12.2244 21.6641 12.0703C21.6641 11.9162 21.6014 11.765 21.4923 11.6561C21.3834 11.547 21.2322 11.4844 21.0781 11.4844Z" fill="#220959"/>
<path d="M2.67969 27.0703C2.67969 27.3939 2.94207 27.6562 3.26562 27.6562H18.7344C19.0579 27.6562 19.3203 27.3939 19.3203 27.0703V14.4141C19.3203 14.0905 19.0579 13.8281 18.7344 13.8281H3.26562C2.94207 13.8281 2.67969 14.0905 2.67969 14.4141V27.0703ZM12.9922 22.2656H9.00781V19.2188H12.9922V22.2656ZM7.83594 22.2656H3.85156V19.2188H7.83594V22.2656ZM3.85156 23.4375H7.83594V26.4844H3.85156V23.4375ZM9.00781 23.4375H12.9922V26.4844H9.00781V23.4375ZM18.1484 26.4844H14.1641V22.8516V19.2188H18.1484V26.4844ZM18.1484 18.0469H14.1641V15H18.1484V18.0469ZM12.9922 18.0469H9.00781V15H12.9922V18.0469ZM3.85156 15H7.83594V18.0469H3.85156V15Z" fill="#220959"/>
<path d="M6.45193 6.0598C6.74525 6.0598 6.99305 6.2599 6.99305 6.49673C6.99305 6.82029 7.25543 7.08267 7.57898 7.08267C7.90254 7.08267 8.16492 6.82029 8.16492 6.49673C8.16492 5.8024 7.69412 5.20949 7.03658 4.98455C7.02357 4.67248 6.76717 4.42322 6.45188 4.42322C6.13658 4.42322 5.88018 4.67242 5.86717 4.98455C5.20969 5.20949 4.73883 5.8024 4.73883 6.49673C4.73883 7.38384 5.50729 8.10554 6.45182 8.10554C6.74514 8.10554 6.99293 8.30564 6.99293 8.54248C6.99293 8.77937 6.74514 8.97947 6.45182 8.97947C6.1585 8.97947 5.9107 8.77937 5.9107 8.54248C5.9107 8.21892 5.64832 7.95654 5.32477 7.95654C5.00121 7.95654 4.73883 8.21892 4.73883 8.54248C4.73883 9.23769 5.21086 9.83124 5.86963 10.0555C5.90186 10.3487 6.15012 10.5769 6.45182 10.5769C6.75352 10.5769 7.00178 10.3487 7.034 10.0555C7.69277 9.83124 8.1648 9.23775 8.1648 8.54248C8.1648 7.65537 7.39635 6.93367 6.45182 6.93367C6.1585 6.93367 5.9107 6.73357 5.9107 6.49673C5.9107 6.2599 6.15861 6.0598 6.45193 6.0598Z" fill="#220959"/>
<path d="M11.0074 6.0598C11.3008 6.0598 11.5486 6.2599 11.5486 6.49673C11.5486 6.82029 11.8109 7.08267 12.1345 7.08267C12.458 7.08267 12.7204 6.82029 12.7204 6.49673C12.7204 5.8024 12.2496 5.20949 11.5921 4.98455C11.5791 4.67248 11.3227 4.42322 11.0074 4.42322C10.6921 4.42322 10.4357 4.67242 10.4227 4.98455C9.7652 5.20949 9.29434 5.8024 9.29434 6.49673C9.29434 7.38384 10.0628 8.10554 11.0073 8.10554C11.3006 8.10554 11.5484 8.30564 11.5484 8.54248C11.5484 8.77937 11.3006 8.97947 11.0073 8.97947C10.714 8.97947 10.4662 8.77937 10.4662 8.54248C10.4662 8.21892 10.2038 7.95654 9.88028 7.95654C9.55672 7.95654 9.29434 8.21892 9.29434 8.54248C9.29434 9.23769 9.76637 9.83124 10.4251 10.0555C10.4574 10.3487 10.7056 10.5769 11.0073 10.5769C11.309 10.5769 11.5573 10.3487 11.5895 10.0555C12.2483 9.83124 12.7203 9.23775 12.7203 8.54248C12.7203 7.65537 11.9519 6.93367 11.0073 6.93367C10.714 6.93367 10.4662 6.73357 10.4662 6.49673C10.4662 6.2599 10.7141 6.0598 11.0074 6.0598Z" fill="#220959"/>
<path d="M15.2458 6.0598C15.5391 6.0598 15.7869 6.2599 15.7869 6.49673C15.7869 6.82029 16.0493 7.08267 16.3728 7.08267C16.6964 7.08267 16.9587 6.82029 16.9587 6.49673C16.9587 5.8024 16.4879 5.20949 15.8304 4.98455C15.8174 4.67248 15.561 4.42322 15.2457 4.42322C14.9304 4.42322 14.674 4.67242 14.661 4.98449C14.0035 5.20943 13.5326 5.80234 13.5326 6.49667C13.5326 7.38378 14.3011 8.10548 15.2456 8.10548C15.539 8.10548 15.7868 8.30558 15.7868 8.54242C15.7868 8.77931 15.539 8.97941 15.2456 8.97941C14.9523 8.97941 14.7045 8.77931 14.7045 8.54242C14.7045 8.21886 14.4421 7.95648 14.1185 7.95648C13.795 7.95648 13.5326 8.21886 13.5326 8.54242C13.5326 9.23769 14.0046 9.83119 14.6635 10.0555C14.6957 10.3486 14.9439 10.5768 15.2456 10.5768C15.5473 10.5768 15.7956 10.3486 15.8278 10.0555C16.4866 9.83119 16.9586 9.23769 16.9586 8.54242C16.9586 7.65531 16.1902 6.93361 15.2456 6.93361C14.9523 6.93361 14.7045 6.73351 14.7045 6.49667C14.7045 6.25984 14.9524 6.0598 15.2458 6.0598Z" fill="#220959"/>
</svg>
